<svg version="1.1"  xmlns="http://www.w3.org/2000/svg" xmlns:xlink="http://www.w3.org/1999/xlink" x="0px" y="0px"
	 width="408.28px" height="43.051px" viewBox="0 0 408.28 43.051" enable-background="new 0 0 408.28 43.051" xml:space="preserve">
<g opacity="0.2">
	<path fill="#0096BE" d="M401.908,2.419c0.34-1.644,1.947-2.697,3.588-2.355c1.645,0.341,2.699,1.947,2.354,3.589
		c-0.34,1.642-1.947,2.696-3.588,2.356C402.619,5.667,401.568,4.061,401.908,2.419"/>
	<path fill="#0096BE" d="M401.933,12.944c0.34-1.642,1.947-2.697,3.588-2.355c1.645,0.342,2.699,1.949,2.354,3.59
		c-0.34,1.642-1.947,2.697-3.588,2.355C402.646,16.194,401.593,14.585,401.933,12.944"/>
	<path fill="#0096BE" d="M402.041,23.598c0.342-1.643,1.951-2.695,3.592-2.354c1.643,0.344,2.693,1.949,2.354,3.592
		c-0.34,1.641-1.951,2.694-3.588,2.354C402.757,26.848,401.699,25.242,402.041,23.598"/>
	<path fill="#0096BE" d="M402.271,35.275c0.34-1.643,1.949-2.697,3.592-2.357c1.641,0.344,2.695,1.949,2.352,3.592
		c-0.34,1.644-1.949,2.695-3.588,2.354C402.986,38.525,401.931,36.916,402.271,35.275"/>
	<path fill="#0096BE" d="M390.869,2.78c0.34-1.642,1.947-2.697,3.588-2.356c1.645,0.343,2.699,1.949,2.354,3.592
		c-0.34,1.64-1.947,2.695-3.588,2.355S390.529,4.421,390.869,2.78"/>
	<path fill="#0096BE" d="M390.894,13.306c0.34-1.643,1.947-2.697,3.588-2.355c1.645,0.344,2.699,1.947,2.354,3.592
		c-0.342,1.642-1.945,2.693-3.588,2.354C391.605,16.556,390.554,14.946,390.894,13.306"/>
	<path fill="#0096BE" d="M391.001,23.961c0.342-1.642,1.951-2.695,3.592-2.355c1.643,0.343,2.695,1.949,2.354,3.589
		c-0.34,1.644-1.951,2.698-3.588,2.356C391.718,27.211,390.66,25.604,391.001,23.961"/>
	<path fill="#0096BE" d="M391.232,35.635c0.342-1.641,1.949-2.693,3.592-2.352c1.641,0.342,2.695,1.949,2.352,3.59
		c-0.34,1.643-1.947,2.696-3.588,2.355C391.947,38.885,390.892,37.278,391.232,35.635"/>
	<path fill="#0096BE" d="M379.962,2.505c0.34-1.644,1.945-2.697,3.59-2.355c1.643,0.342,2.697,1.949,2.352,3.589
		c-0.342,1.643-1.947,2.698-3.59,2.356C380.673,5.755,379.621,4.146,379.962,2.505"/>
	<path fill="#0096BE" d="M379.988,13.03c0.34-1.64,1.949-2.695,3.59-2.354c1.641,0.343,2.697,1.949,2.352,3.589
		c-0.342,1.643-1.947,2.698-3.588,2.355C380.699,16.28,379.648,14.674,379.988,13.03"/>
	<path fill="#0096BE" d="M380.097,23.684c0.34-1.641,1.949-2.694,3.59-2.354c1.641,0.344,2.697,1.95,2.354,3.592
		c-0.34,1.64-1.951,2.695-3.588,2.355C380.81,26.934,379.753,25.328,380.097,23.684"/>
	<path fill="#0096BE" d="M380.326,35.361c0.342-1.643,1.949-2.697,3.59-2.355c1.643,0.342,2.697,1.949,2.354,3.59
		c-0.34,1.644-1.949,2.697-3.588,2.355C381.039,38.611,379.986,37.002,380.326,35.361"/>
	<path fill="#0096BE" d="M369.306,2.614c0.34-1.642,1.949-2.697,3.592-2.354c1.641,0.341,2.695,1.949,2.352,3.589
		c-0.34,1.643-1.949,2.698-3.588,2.355C370.021,5.864,368.966,4.255,369.306,2.614"/>
	<path fill="#0096BE" d="M369.332,13.141c0.344-1.641,1.949-2.696,3.592-2.356c1.641,0.343,2.695,1.949,2.352,3.59
		c-0.34,1.642-1.947,2.697-3.588,2.355C370.046,16.391,368.992,14.783,369.332,13.141"/>
	<path fill="#0096BE" d="M369.441,23.795c0.342-1.643,1.949-2.695,3.594-2.355c1.643,0.344,2.693,1.949,2.35,3.591
		c-0.34,1.642-1.947,2.696-3.588,2.356S369.101,25.438,369.441,23.795"/>
	<path fill="#0096BE" d="M369.669,35.471c0.342-1.643,1.953-2.697,3.594-2.356c1.643,0.347,2.693,1.95,2.354,3.595
		c-0.344,1.641-1.951,2.693-3.59,2.352C370.384,38.721,369.33,37.111,369.669,35.471"/>
	<path fill="#0096BE" d="M358.333,2.658c0.34-1.643,1.949-2.695,3.59-2.356c1.643,0.342,2.697,1.949,2.354,3.59
		c-0.34,1.642-1.949,2.697-3.588,2.355C359.048,5.908,357.994,4.299,358.333,2.658"/>
	<path fill="#0096BE" d="M358.359,13.183c0.344-1.64,1.949-2.696,3.592-2.355c1.641,0.343,2.695,1.949,2.352,3.589
		c-0.34,1.644-1.949,2.697-3.588,2.358C359.074,16.433,358.019,14.826,358.359,13.183"/>
	<path fill="#0096BE" d="M358.468,23.84c0.34-1.646,1.949-2.697,3.594-2.357c1.641,0.344,2.693,1.951,2.35,3.591
		c-0.34,1.644-1.949,2.696-3.588,2.355C359.183,27.09,358.128,25.48,358.468,23.84"/>
	<path fill="#0096BE" d="M358.697,35.514c0.34-1.643,1.953-2.697,3.594-2.354s2.693,1.949,2.354,3.592
		c-0.344,1.641-1.953,2.694-3.592,2.352C359.412,38.764,358.357,37.153,358.697,35.514"/>
	<path fill="#0096BE" d="M347.294,3.019c0.34-1.642,1.949-2.697,3.592-2.355c1.641,0.346,2.695,1.949,2.354,3.592
		c-0.342,1.643-1.951,2.693-3.59,2.354C348.009,6.269,346.955,4.66,347.294,3.019"/>
	<path fill="#0096BE" d="M347.32,13.545c0.34-1.643,1.949-2.697,3.592-2.354c1.641,0.343,2.695,1.949,2.352,3.591
		c-0.34,1.641-1.949,2.695-3.588,2.352C348.035,16.795,346.98,15.185,347.32,13.545"/>
	<path fill="#0096BE" d="M347.429,24.198c0.34-1.64,1.949-2.694,3.594-2.354c1.641,0.344,2.693,1.949,2.35,3.592
		c-0.34,1.641-1.949,2.695-3.588,2.355C348.144,27.448,347.087,25.842,347.429,24.198"/>
	<path fill="#0096BE" d="M347.658,35.877c0.34-1.645,1.951-2.695,3.594-2.355c1.643,0.341,2.693,1.949,2.35,3.59
		c-0.34,1.643-1.949,2.697-3.588,2.357C348.373,39.127,347.318,37.518,347.658,35.877"/>
	<path fill="#0096BE" d="M336.64,3.128c0.34-1.642,1.951-2.696,3.592-2.353c1.643,0.343,2.693,1.949,2.354,3.589
		c-0.344,1.644-1.951,2.697-3.59,2.354C337.353,6.379,336.298,4.769,336.64,3.128"/>
	<path fill="#0096BE" d="M336.666,13.653c0.34-1.642,1.951-2.692,3.592-2.353c1.643,0.344,2.695,1.949,2.354,3.59
		c-0.342,1.642-1.951,2.697-3.588,2.357C337.378,16.903,336.326,15.299,336.666,13.653"/>
	<path fill="#0096BE" d="M336.777,24.309c0.34-1.641,1.947-2.696,3.588-2.355c1.645,0.344,2.699,1.949,2.354,3.592
		c-0.342,1.645-1.947,2.694-3.588,2.355C337.488,27.559,336.437,25.951,336.777,24.309"/>
	<path fill="#0096BE" d="M337.005,35.986c0.34-1.643,1.949-2.697,3.59-2.355c1.643,0.342,2.697,1.949,2.352,3.59
		c-0.34,1.642-1.947,2.697-3.588,2.355C337.716,39.236,336.666,37.627,337.005,35.986"/>
	<path fill="#0096BE" d="M325.732,2.853c0.344-1.641,1.953-2.695,3.594-2.355c1.643,0.344,2.695,1.948,2.354,3.591
		c-0.34,1.641-1.951,2.695-3.588,2.355C326.447,6.103,325.392,4.495,325.732,2.853"/>
	<path fill="#0096BE" d="M325.757,13.379c0.344-1.642,1.953-2.696,3.594-2.356c1.643,0.346,2.693,1.949,2.354,3.594
		c-0.34,1.643-1.951,2.694-3.588,2.354C326.472,16.628,325.417,15.021,325.757,13.379"/>
	<path fill="#0096BE" d="M325.869,24.035c0.342-1.643,1.951-2.697,3.592-2.355c1.643,0.342,2.697,1.948,2.352,3.59
		c-0.34,1.642-1.947,2.697-3.59,2.355C326.582,27.285,325.529,25.676,325.869,24.035"/>
	<path fill="#0096BE" d="M326.099,35.709c0.34-1.641,1.949-2.693,3.59-2.354c1.643,0.343,2.697,1.949,2.354,3.591
		s-1.949,2.696-3.59,2.356C326.81,38.959,325.757,37.354,326.099,35.709"/>
	<path fill="#0096BE" d="M315.08,2.963c0.342-1.641,1.949-2.696,3.592-2.355c1.641,0.343,2.695,1.949,2.352,3.589
		c-0.342,1.646-1.947,2.698-3.59,2.356C315.792,6.212,314.74,4.605,315.08,2.963"/>
	<path fill="#0096BE" d="M315.105,13.487c0.342-1.64,1.949-2.694,3.592-2.353c1.641,0.343,2.695,1.948,2.354,3.592
		c-0.344,1.64-1.949,2.693-3.592,2.353C315.816,16.737,314.765,15.131,315.105,13.487"/>
	<path fill="#0096BE" d="M315.214,24.145c0.342-1.643,1.949-2.698,3.59-2.355c1.643,0.342,2.697,1.948,2.354,3.59
		c-0.34,1.643-1.949,2.697-3.588,2.355C315.929,27.395,314.875,25.785,315.214,24.145"/>
	<path fill="#0096BE" d="M315.447,35.819c0.34-1.642,1.945-2.694,3.588-2.354c1.641,0.344,2.699,1.949,2.354,3.592
		c-0.342,1.64-1.949,2.695-3.59,2.354C316.158,39.069,315.103,37.463,315.447,35.819"/>
	<path fill="#0096BE" d="M303.72,3.258c0.344-1.641,1.951-2.693,3.594-2.354c1.643,0.344,2.693,1.95,2.354,3.592
		c-0.34,1.641-1.951,2.696-3.588,2.353C304.435,6.508,303.38,4.902,303.72,3.258"/>
	<path fill="#0096BE" d="M303.746,13.787c0.344-1.644,1.953-2.697,3.594-2.358c1.641,0.344,2.693,1.95,2.354,3.592
		c-0.34,1.641-1.951,2.695-3.588,2.356C304.46,17.037,303.406,15.428,303.746,13.787"/>
	<path fill="#0096BE" d="M303.859,24.439c0.34-1.643,1.945-2.697,3.59-2.357c1.641,0.347,2.695,1.951,2.352,3.594
		c-0.342,1.643-1.947,2.693-3.59,2.353C304.57,27.689,303.517,26.08,303.859,24.439"/>
	<path fill="#0096BE" d="M304.087,36.114c0.34-1.64,1.949-2.694,3.59-2.354c1.643,0.344,2.697,1.949,2.354,3.592
		c-0.344,1.641-1.949,2.695-3.592,2.355C304.798,39.364,303.746,37.758,304.087,36.114"/>
	<path fill="#0096BE" d="M293.001,3.687c0.342-1.642,1.949-2.698,3.592-2.355c1.641,0.344,2.695,1.949,2.354,3.59
		c-0.344,1.643-1.949,2.697-3.592,2.356C293.712,6.937,292.662,5.328,293.001,3.687"/>
	<path fill="#0096BE" d="M293.027,14.212c0.342-1.64,1.949-2.695,3.592-2.354c1.641,0.343,2.695,1.949,2.354,3.589
		c-0.344,1.646-1.951,2.698-3.592,2.358C293.74,17.463,292.687,15.855,293.027,14.212"/>
	<path fill="#0096BE" d="M293.136,24.869c0.342-1.645,1.949-2.697,3.592-2.357c1.641,0.344,2.695,1.949,2.354,3.592
		c-0.342,1.641-1.949,2.695-3.59,2.355S292.796,26.51,293.136,24.869"/>
	<path fill="#0096BE" d="M293.369,36.543c0.34-1.643,1.945-2.698,3.588-2.354c1.641,0.344,2.699,1.949,2.354,3.589
		c-0.342,1.644-1.951,2.698-3.59,2.354C294.08,39.793,293.025,38.184,293.369,36.543"/>
	<path fill="#0096BE" d="M282.349,3.796c0.34-1.643,1.947-2.697,3.588-2.355c1.643,0.341,2.695,1.949,2.354,3.589
		c-0.34,1.644-1.949,2.698-3.588,2.356C283.062,7.047,282.005,5.437,282.349,3.796"/>
	<path fill="#0096BE" d="M282.375,14.322c0.342-1.641,1.947-2.695,3.588-2.355c1.643,0.346,2.699,1.949,2.354,3.594
		c-0.34,1.64-1.949,2.693-3.588,2.354C283.085,17.572,282.031,15.964,282.375,14.322"/>
	<path fill="#0096BE" d="M282.482,24.978c0.34-1.642,1.951-2.697,3.594-2.356c1.641,0.344,2.693,1.948,2.35,3.591
		c-0.342,1.642-1.949,2.696-3.588,2.356C283.195,28.229,282.14,26.619,282.482,24.978"/>
	<path fill="#0096BE" d="M282.71,36.652c0.344-1.643,1.951-2.697,3.592-2.354c1.643,0.344,2.695,1.949,2.354,3.59
		c-0.34,1.642-1.951,2.697-3.588,2.354C283.423,39.902,282.369,38.297,282.71,36.652"/>
	<path fill="#0096BE" d="M271.443,3.521c0.34-1.642,1.945-2.695,3.588-2.355c1.641,0.344,2.699,1.949,2.354,3.592
		c-0.342,1.64-1.949,2.695-3.588,2.354C272.154,6.771,271.099,5.164,271.443,3.521"/>
	<path fill="#0096BE" d="M271.468,14.048c0.34-1.643,1.945-2.697,3.588-2.357c1.641,0.343,2.699,1.949,2.354,3.591
		c-0.342,1.641-1.949,2.695-3.59,2.355S271.128,15.689,271.468,14.048"/>
	<path fill="#0096BE" d="M271.574,24.701c0.342-1.643,1.953-2.693,3.594-2.354c1.641,0.342,2.693,1.949,2.354,3.59
		c-0.344,1.643-1.951,2.697-3.592,2.357C272.289,27.951,271.234,26.344,271.574,24.701"/>
	<path fill="#0096BE" d="M271.802,36.377c0.344-1.641,1.953-2.695,3.594-2.355c1.643,0.346,2.695,1.949,2.354,3.593
		c-0.34,1.642-1.951,2.694-3.588,2.354C272.519,39.627,271.462,38.02,271.802,36.377"/>
	<path fill="#0096BE" d="M260.787,3.631c0.34-1.642,1.949-2.696,3.592-2.355c1.641,0.343,2.695,1.949,2.352,3.591
		c-0.342,1.641-1.949,2.695-3.588,2.355C261.5,6.88,260.445,5.273,260.787,3.631"/>
	<path fill="#0096BE" d="M260.812,14.158c0.342-1.643,1.949-2.697,3.592-2.358c1.641,0.344,2.695,1.949,2.352,3.592
		c-0.342,1.64-1.949,2.695-3.588,2.355C261.525,17.408,260.47,15.799,260.812,14.158"/>
	<path fill="#0096BE" d="M260.921,24.812c0.342-1.645,1.949-2.695,3.592-2.355c1.641,0.342,2.695,1.948,2.352,3.59
		c-0.342,1.643-1.949,2.697-3.588,2.355C261.634,28.062,260.58,26.453,260.921,24.812"/>
	<path fill="#0096BE" d="M261.15,36.486c0.342-1.642,1.949-2.695,3.592-2.354c1.643,0.344,2.695,1.947,2.352,3.592
		c-0.34,1.64-1.947,2.693-3.588,2.354C261.865,39.736,260.81,38.128,261.15,36.486"/>
	<path fill="#0096BE" d="M249.429,3.926c0.34-1.641,1.949-2.696,3.59-2.356c1.643,0.345,2.697,1.95,2.354,3.593
		c-0.342,1.642-1.949,2.695-3.588,2.355C250.142,7.176,249.089,5.568,249.429,3.926"/>
	<path fill="#0096BE" d="M249.455,14.451c0.34-1.64,1.949-2.695,3.59-2.355c1.645,0.346,2.697,1.949,2.354,3.593
		c-0.342,1.641-1.949,2.693-3.59,2.354C250.167,17.701,249.115,16.094,249.455,14.451"/>
	<path fill="#0096BE" d="M249.564,25.107c0.342-1.643,1.949-2.697,3.59-2.355c1.645,0.342,2.697,1.949,2.354,3.59
		c-0.34,1.643-1.949,2.697-3.588,2.354C250.277,28.357,249.224,26.748,249.564,25.107"/>
	<path fill="#0096BE" d="M249.794,36.78c0.34-1.64,1.949-2.692,3.59-2.353c1.641,0.344,2.697,1.949,2.352,3.592
		c-0.34,1.641-1.949,2.695-3.588,2.355C250.505,40.03,249.453,38.426,249.794,36.78"/>
	<path fill="#0096BE" d="M238.775,4.035c0.34-1.64,1.949-2.695,3.592-2.355c1.641,0.346,2.695,1.948,2.352,3.593
		c-0.34,1.641-1.949,2.693-3.59,2.354C239.488,7.285,238.433,5.678,238.775,4.035"/>
	<path fill="#0096BE" d="M238.8,14.561c0.34-1.641,1.949-2.696,3.592-2.354c1.641,0.343,2.695,1.951,2.352,3.592
		c-0.342,1.64-1.949,2.695-3.588,2.353C239.513,17.811,238.458,16.203,238.8,14.561"/>
	<path fill="#0096BE" d="M238.91,25.217c0.34-1.644,1.949-2.697,3.592-2.355c1.641,0.342,2.695,1.949,2.352,3.59
		c-0.342,1.645-1.949,2.697-3.588,2.355C239.623,28.467,238.568,26.857,238.91,25.217"/>
	<path fill="#0096BE" d="M239.138,36.893c0.342-1.643,1.949-2.696,3.592-2.355c1.643,0.344,2.695,1.949,2.352,3.591
		c-0.34,1.642-1.949,2.695-3.588,2.356C239.851,40.145,238.798,38.535,239.138,36.893"/>
	<path fill="#0096BE" d="M227.802,4.078c0.34-1.641,1.949-2.696,3.59-2.356c1.643,0.346,2.697,1.949,2.354,3.594
		c-0.342,1.641-1.949,2.694-3.59,2.354C228.515,7.328,227.46,5.72,227.802,4.078"/>
	<path fill="#0096BE" d="M227.828,14.605c0.34-1.642,1.949-2.697,3.59-2.354c1.643,0.342,2.697,1.949,2.354,3.59
		c-0.342,1.642-1.951,2.697-3.59,2.353C228.541,17.855,227.486,16.246,227.828,14.605"/>
	<path fill="#0096BE" d="M227.937,25.26c0.34-1.643,1.949-2.695,3.59-2.356c1.643,0.343,2.697,1.95,2.354,3.591
		c-0.342,1.645-1.949,2.697-3.59,2.355C228.65,28.51,227.595,26.9,227.937,25.26"/>
	<path fill="#0096BE" d="M228.166,36.938c0.342-1.643,1.949-2.698,3.592-2.357c1.643,0.344,2.695,1.948,2.352,3.592
		c-0.34,1.641-1.949,2.695-3.588,2.355C228.88,40.188,227.826,38.578,228.166,36.938"/>
	<path fill="#0096BE" d="M217.146,4.187c0.342-1.64,1.949-2.695,3.592-2.354c1.643,0.344,2.695,1.947,2.352,3.592
		c-0.34,1.64-1.947,2.695-3.588,2.353C217.861,7.437,216.806,5.83,217.146,4.187"/>
	<path fill="#0096BE" d="M217.173,14.712c0.34-1.64,1.947-2.693,3.59-2.353c1.643,0.343,2.695,1.951,2.354,3.591
		c-0.342,1.643-1.949,2.698-3.59,2.355C217.886,17.964,216.832,16.357,217.173,14.712"/>
	<path fill="#0096BE" d="M217.283,25.369c0.34-1.643,1.949-2.695,3.59-2.355c1.643,0.346,2.697,1.949,2.354,3.59
		c-0.342,1.645-1.949,2.697-3.59,2.355C217.996,28.619,216.941,27.01,217.283,25.369"/>
	<path fill="#0096BE" d="M217.511,37.045c0.34-1.642,1.949-2.695,3.59-2.355c1.645,0.344,2.697,1.949,2.354,3.591
		c-0.34,1.642-1.949,2.696-3.588,2.356C218.224,40.297,217.171,38.688,217.511,37.045"/>
	<path fill="#0096BE" d="M206.173,4.23c0.342-1.641,1.949-2.695,3.592-2.351c1.643,0.341,2.695,1.949,2.352,3.589
		c-0.34,1.641-1.947,2.695-3.588,2.354C206.888,7.48,205.833,5.873,206.173,4.23"/>
	<path fill="#0096BE" d="M206.201,14.76c0.34-1.646,1.947-2.698,3.59-2.356c1.643,0.343,2.695,1.95,2.352,3.591
		c-0.34,1.642-1.947,2.697-3.588,2.355C206.914,18.01,205.859,16.4,206.201,14.76"/>
	<path fill="#0096BE" d="M206.31,25.411c0.34-1.64,1.949-2.694,3.59-2.354c1.643,0.346,2.697,1.949,2.352,3.594
		c-0.34,1.641-1.949,2.693-3.588,2.352C207.023,28.662,205.968,27.053,206.31,25.411"/>
	<path fill="#0096BE" d="M206.539,37.09c0.342-1.644,1.949-2.697,3.592-2.355s2.695,1.947,2.352,3.589
		c-0.34,1.644-1.949,2.698-3.588,2.356C207.251,40.34,206.199,38.73,206.539,37.09"/>
	<path fill="#0096BE" d="M195.203,4.273c0.34-1.641,1.949-2.695,3.59-2.352c1.643,0.342,2.697,1.949,2.352,3.59
		c-0.34,1.642-1.949,2.697-3.588,2.353C195.916,7.525,194.861,5.916,195.203,4.273"/>
	<path fill="#0096BE" d="M195.228,14.802c0.34-1.644,1.949-2.695,3.59-2.356c1.643,0.342,2.697,1.95,2.352,3.59
		c-0.34,1.643-1.949,2.697-3.588,2.356C195.941,18.052,194.886,16.443,195.228,14.802"/>
	<path fill="#0096BE" d="M195.337,25.455c0.34-1.641,1.949-2.695,3.59-2.355c1.643,0.345,2.697,1.949,2.354,3.594
		c-0.342,1.641-1.949,2.693-3.59,2.354C196.05,28.705,194.996,27.098,195.337,25.455"/>
	<path fill="#0096BE" d="M195.566,37.133c0.342-1.644,1.949-2.697,3.592-2.355c1.641,0.342,2.695,1.947,2.352,3.59
		c-0.34,1.643-1.949,2.697-3.588,2.355C196.279,40.383,195.224,38.773,195.566,37.133"/>
	<path fill="#0096BE" d="M184.294,4c0.342-1.642,1.949-2.697,3.592-2.355c1.641,0.345,2.695,1.949,2.352,3.593
		c-0.34,1.642-1.947,2.694-3.588,2.352C185.007,7.25,183.955,5.643,184.294,4"/>
	<path fill="#0096BE" d="M184.32,14.525c0.342-1.641,1.949-2.695,3.592-2.354c1.641,0.344,2.695,1.949,2.354,3.592
		c-0.342,1.64-1.949,2.695-3.59,2.353C185.033,17.775,183.98,16.167,184.32,14.525"/>
	<path fill="#0096BE" d="M184.429,25.182c0.342-1.643,1.949-2.697,3.592-2.355s2.695,1.947,2.354,3.59
		c-0.342,1.641-1.949,2.695-3.59,2.355C185.142,28.432,184.089,26.822,184.429,25.182"/>
	<path fill="#0096BE" d="M184.66,36.857c0.34-1.646,1.949-2.695,3.592-2.355c1.641,0.343,2.695,1.949,2.352,3.59
		c-0.342,1.643-1.949,2.697-3.588,2.356C185.373,40.107,184.318,38.5,184.66,36.857"/>
	<path fill="#0096BE" d="M173.576,4.429c0.34-1.644,1.947-2.696,3.59-2.355c1.643,0.342,2.695,1.95,2.352,3.59
		c-0.34,1.643-1.949,2.698-3.588,2.355C174.289,7.68,173.234,6.069,173.576,4.429"/>
	<path fill="#0096BE" d="M173.601,14.955c0.34-1.642,1.949-2.697,3.59-2.355c1.643,0.344,2.697,1.949,2.352,3.59
		c-0.34,1.643-1.949,2.697-3.588,2.356C174.314,18.205,173.259,16.596,173.601,14.955"/>
	<path fill="#0096BE" d="M173.71,25.607c0.34-1.641,1.949-2.696,3.59-2.354c1.643,0.344,2.697,1.949,2.352,3.591
		c-0.34,1.642-1.949,2.696-3.588,2.354C174.423,28.857,173.369,27.25,173.71,25.607"/>
	<path fill="#0096BE" d="M173.939,37.285c0.342-1.643,1.949-2.697,3.59-2.356c1.643,0.343,2.697,1.95,2.354,3.591
		c-0.34,1.645-1.949,2.697-3.588,2.355C174.652,40.535,173.597,38.926,173.939,37.285"/>
	<path fill="#0096BE" d="M162.919,4.539c0.342-1.642,1.949-2.697,3.592-2.355c1.643,0.342,2.695,1.949,2.352,3.59
		c-0.34,1.643-1.949,2.697-3.588,2.355C163.632,7.789,162.58,6.18,162.919,4.539"/>
	<path fill="#0096BE" d="M162.945,15.064c0.342-1.643,1.949-2.698,3.592-2.355c1.643,0.343,2.695,1.949,2.352,3.59
		c-0.34,1.643-1.949,2.696-3.588,2.354C163.658,18.314,162.605,16.707,162.945,15.064"/>
	<path fill="#0096BE" d="M163.054,25.717c0.342-1.641,1.949-2.693,3.592-2.354c1.643,0.345,2.695,1.95,2.352,3.593
		c-0.34,1.641-1.949,2.695-3.588,2.355C163.769,28.967,162.714,27.361,163.054,25.717"/>
	<path fill="#0096BE" d="M163.285,37.395c0.34-1.643,1.949-2.698,3.59-2.355c1.643,0.346,2.697,1.948,2.354,3.589
		c-0.342,1.646-1.949,2.695-3.59,2.356C163.998,40.645,162.943,39.035,163.285,37.395"/>
	<path fill="#0096BE" d="M151.88,4.898c0.34-1.64,1.949-2.695,3.592-2.355c1.643,0.343,2.695,1.949,2.352,3.591
		c-0.34,1.644-1.947,2.696-3.588,2.355C152.593,8.15,151.541,6.541,151.88,4.898"/>
	<path fill="#0096BE" d="M151.906,15.426c0.342-1.643,1.949-2.697,3.592-2.356c1.643,0.345,2.695,1.948,2.352,3.593
		c-0.34,1.642-1.947,2.695-3.588,2.354C152.619,18.676,151.566,17.066,151.906,15.426"/>
	<path fill="#0096BE" d="M152.015,26.08c0.342-1.641,1.949-2.695,3.592-2.355c1.643,0.344,2.695,1.949,2.352,3.592
		c-0.34,1.641-1.945,2.695-3.588,2.355C152.73,29.33,151.675,27.723,152.015,26.08"/>
	<path fill="#0096BE" d="M152.246,37.756c0.34-1.644,1.949-2.695,3.59-2.354c1.643,0.342,2.697,1.949,2.354,3.59
		c-0.342,1.643-1.949,2.697-3.59,2.355S151.906,39.398,152.246,37.756"/>
	<path fill="#0096BE" d="M141.16,5.326c0.342-1.641,1.949-2.694,3.592-2.354c1.641,0.344,2.695,1.949,2.352,3.592
		c-0.34,1.64-1.949,2.695-3.588,2.355C141.873,8.576,140.82,6.97,141.16,5.326"/>
	<path fill="#0096BE" d="M141.185,15.855c0.342-1.644,1.949-2.697,3.592-2.355c1.641,0.342,2.695,1.947,2.354,3.59
		c-0.342,1.641-1.949,2.695-3.59,2.355C141.898,19.105,140.845,17.495,141.185,15.855"/>
	<path fill="#0096BE" d="M141.294,26.508c0.342-1.644,1.949-2.697,3.592-2.355c1.643,0.346,2.695,1.949,2.354,3.592
		s-1.949,2.695-3.59,2.354C142.007,29.758,140.955,28.148,141.294,26.508"/>
	<path fill="#0096BE" d="M141.525,38.184c0.342-1.641,1.949-2.696,3.592-2.355c1.641,0.344,2.695,1.949,2.352,3.592
		c-0.342,1.641-1.949,2.694-3.588,2.355C142.238,41.434,141.183,39.826,141.525,38.184"/>
	<path fill="#0096BE" d="M129.802,5.623c0.342-1.641,1.949-2.695,3.592-2.355c1.643,0.344,2.695,1.949,2.352,3.592
		c-0.34,1.64-1.947,2.695-3.588,2.355C130.515,8.873,129.462,7.265,129.802,5.623"/>
	<path fill="#0096BE" d="M129.828,16.15c0.34-1.642,1.949-2.697,3.592-2.357c1.643,0.343,2.695,1.949,2.352,3.591
		c-0.34,1.641-1.947,2.695-3.588,2.355C130.541,19.4,129.488,17.791,129.828,16.15"/>
	<path fill="#0096BE" d="M129.937,26.805c0.342-1.645,1.949-2.695,3.592-2.356c1.643,0.343,2.695,1.95,2.352,3.591
		c-0.34,1.643-1.949,2.697-3.588,2.357C130.652,30.053,129.597,28.444,129.937,26.805"/>
	<path fill="#0096BE" d="M130.167,38.478c0.34-1.64,1.949-2.694,3.59-2.354c1.643,0.346,2.697,1.949,2.352,3.594
		c-0.34,1.641-1.947,2.693-3.588,2.353S129.828,40.121,130.167,38.478"/>
	<path fill="#0096BE" d="M119.666,4.844c0.34-1.643,1.949-2.698,3.59-2.356c1.643,0.344,2.697,1.95,2.354,3.591
		c-0.342,1.642-1.949,2.697-3.588,2.355C120.378,8.094,119.326,6.484,119.666,4.844"/>
	<path fill="#0096BE" d="M119.691,15.369c0.34-1.64,1.949-2.695,3.59-2.355c1.645,0.346,2.697,1.95,2.354,3.59
		c-0.342,1.645-1.949,2.697-3.588,2.358C120.404,18.619,119.351,17.012,119.691,15.369"/>
	<path fill="#0096BE" d="M119.8,26.025c0.34-1.643,1.949-2.697,3.592-2.357c1.643,0.344,2.695,1.949,2.352,3.592
		c-0.34,1.641-1.949,2.695-3.588,2.354C120.513,29.275,119.46,27.666,119.8,26.025"/>
	<path fill="#0096BE" d="M120.031,37.698c0.34-1.642,1.949-2.692,3.59-2.354c1.643,0.345,2.697,1.95,2.352,3.591
		c-0.34,1.643-1.947,2.697-3.588,2.357C120.744,40.948,119.689,39.344,120.031,37.698"/>
	<path fill="#0096BE" d="M108.308,5.138c0.342-1.643,1.949-2.697,3.59-2.355c1.643,0.345,2.697,1.95,2.354,3.592
		c-0.34,1.642-1.949,2.694-3.588,2.354C109.021,8.388,107.968,6.778,108.308,5.138"/>
	<path fill="#0096BE" d="M108.333,15.664c0.342-1.643,1.949-2.693,3.592-2.353c1.641,0.343,2.695,1.949,2.352,3.591
		c-0.34,1.641-1.949,2.695-3.588,2.356C109.046,18.914,107.992,17.309,108.333,15.664"/>
	<path fill="#0096BE" d="M108.443,26.319c0.342-1.642,1.949-2.696,3.592-2.356c1.641,0.346,2.695,1.948,2.352,3.592
		c-0.34,1.644-1.949,2.695-3.588,2.355C109.156,29.569,108.101,27.961,108.443,26.319"/>
	<path fill="#0096BE" d="M108.671,37.995c0.342-1.644,1.951-2.694,3.592-2.354c1.643,0.344,2.695,1.949,2.354,3.59
		c-0.342,1.643-1.949,2.697-3.59,2.357C109.384,41.246,108.332,39.639,108.671,37.995"/>
	<path fill="#0096BE" d="M97.654,5.248c0.34-1.643,1.949-2.697,3.59-2.353c1.643,0.341,2.697,1.949,2.354,3.589
		c-0.342,1.643-1.949,2.697-3.59,2.354C98.367,8.498,97.314,6.888,97.654,5.248"/>
	<path fill="#0096BE" d="M97.679,15.775c0.34-1.645,1.949-2.696,3.59-2.356c1.643,0.344,2.697,1.949,2.354,3.592
		c-0.342,1.64-1.949,2.695-3.59,2.355C98.392,19.023,97.339,17.417,97.679,15.775"/>
	<path fill="#0096BE" d="M97.789,26.429c0.34-1.642,1.949-2.696,3.59-2.356c1.645,0.346,2.697,1.949,2.354,3.594
		c-0.34,1.643-1.949,2.693-3.588,2.354C98.501,29.68,97.447,28.069,97.789,26.429"/>
	<path fill="#0096BE" d="M98.019,38.105c0.34-1.643,1.949-2.695,3.59-2.355c1.643,0.344,2.697,1.948,2.352,3.59
		c-0.34,1.643-1.949,2.697-3.588,2.356C98.732,41.355,97.677,39.748,98.019,38.105"/>
	<path fill="#0096BE" d="M86.548,5.929c0.342-1.642,1.949-2.696,3.592-2.357c1.641,0.344,2.695,1.949,2.352,3.592
		c-0.342,1.645-1.949,2.696-3.588,2.355C87.261,9.18,86.208,7.569,86.548,5.929"/>
	<path fill="#0096BE" d="M86.574,16.455c0.342-1.642,1.949-2.697,3.592-2.355c1.641,0.344,2.695,1.948,2.352,3.592
		c-0.342,1.642-1.949,2.693-3.588,2.354C87.287,19.705,86.232,18.096,86.574,16.455"/>
	<path fill="#0096BE" d="M86.683,27.109c0.34-1.641,1.949-2.695,3.592-2.355c1.641,0.344,2.695,1.949,2.352,3.59
		c-0.342,1.643-1.949,2.697-3.588,2.357C87.396,30.359,86.343,28.752,86.683,27.109"/>
	<path fill="#0096BE" d="M86.912,38.783c0.342-1.641,1.949-2.693,3.592-2.352s2.695,1.949,2.354,3.59
		c-0.342,1.643-1.951,2.697-3.59,2.355C87.626,42.033,86.572,40.428,86.912,38.783"/>
	<path fill="#0096BE" d="M75.894,6.039c0.342-1.642,1.949-2.697,3.592-2.357c1.641,0.346,2.695,1.95,2.352,3.594
		c-0.34,1.642-1.949,2.693-3.588,2.353C76.607,9.289,75.552,7.68,75.894,6.039"/>
	<path fill="#0096BE" d="M75.919,16.564c0.342-1.643,1.949-2.698,3.592-2.354c1.641,0.341,2.695,1.949,2.352,3.589
		c-0.34,1.643-1.949,2.698-3.588,2.353C76.632,19.814,75.578,18.205,75.919,16.564"/>
	<path fill="#0096BE" d="M76.029,27.219c0.342-1.641,1.949-2.695,3.592-2.356c1.641,0.345,2.695,1.95,2.352,3.591
		c-0.34,1.643-1.949,2.697-3.588,2.357C76.742,30.469,75.689,28.861,76.029,27.219"/>
	<path fill="#0096BE" d="M76.257,38.896c0.342-1.645,1.949-2.698,3.592-2.355c1.643,0.342,2.695,1.948,2.354,3.59
		c-0.342,1.643-1.949,2.697-3.59,2.355C76.97,42.146,75.917,40.537,76.257,38.896"/>
	<path fill="#0096BE" d="M64.921,6.082c0.34-1.643,1.947-2.698,3.592-2.357c1.641,0.345,2.693,1.949,2.352,3.593
		c-0.342,1.643-1.949,2.694-3.59,2.354C65.634,9.332,64.58,7.722,64.921,6.082"/>
	<path fill="#0096BE" d="M64.947,16.607c0.34-1.643,1.949-2.696,3.592-2.354c1.641,0.344,2.695,1.949,2.352,3.59
		c-0.342,1.642-1.949,2.697-3.588,2.357C65.66,19.857,64.605,18.251,64.947,16.607"/>
	<path fill="#0096BE" d="M65.056,27.262c0.34-1.641,1.949-2.695,3.592-2.356c1.641,0.345,2.695,1.95,2.352,3.59
		c-0.342,1.644-1.949,2.698-3.588,2.358C65.769,30.512,64.716,28.903,65.056,27.262"/>
	<path fill="#0096BE" d="M65.285,38.939c0.342-1.645,1.949-2.697,3.592-2.355s2.695,1.949,2.352,3.59
		c-0.34,1.643-1.949,2.697-3.588,2.354C65.998,42.189,64.945,40.58,65.285,38.939"/>
	<path fill="#0096BE" d="M54.267,6.191c0.342-1.643,1.949-2.697,3.592-2.358C59.5,4.18,60.554,5.783,60.21,7.428
		c-0.342,1.642-1.949,2.693-3.588,2.353C54.98,9.441,53.925,7.832,54.267,6.191"/>
	<path fill="#0096BE" d="M54.292,16.716c0.342-1.643,1.949-2.695,3.592-2.354c1.641,0.345,2.695,1.95,2.352,3.59
		c-0.34,1.643-1.949,2.697-3.588,2.356C55.005,19.966,53.951,18.361,54.292,16.716"/>
	<path fill="#0096BE" d="M54.402,27.371c0.342-1.641,1.949-2.695,3.592-2.355c1.641,0.346,2.695,1.949,2.352,3.59
		c-0.34,1.645-1.949,2.697-3.588,2.357C55.115,30.621,54.06,29.014,54.402,27.371"/>
	<path fill="#0096BE" d="M54.63,39.049c0.342-1.644,1.949-2.697,3.592-2.355s2.695,1.949,2.354,3.59
		c-0.342,1.643-1.949,2.694-3.59,2.355C55.343,42.299,54.291,40.689,54.63,39.049"/>
	<path fill="#0096BE" d="M42.976,6.167c0.34-1.642,1.949-2.697,3.59-2.355c1.643,0.346,2.697,1.949,2.354,3.591
		c-0.342,1.644-1.949,2.696-3.59,2.354C43.689,9.417,42.634,7.809,42.976,6.167"/>
	<path fill="#0096BE" d="M43.001,16.693c0.34-1.643,1.949-2.694,3.59-2.354c1.643,0.344,2.697,1.949,2.354,3.592
		c-0.342,1.64-1.949,2.695-3.59,2.355C43.714,19.943,42.66,18.337,43.001,16.693"/>
	<path fill="#0096BE" d="M43.111,27.348c0.34-1.641,1.949-2.695,3.59-2.355c1.643,0.344,2.697,1.949,2.354,3.592
		c-0.342,1.645-1.949,2.694-3.59,2.355C43.824,30.6,42.769,28.989,43.111,27.348"/>
	<path fill="#0096BE" d="M43.339,39.025c0.342-1.641,1.949-2.695,3.592-2.355c1.641,0.344,2.695,1.949,2.352,3.59
		c-0.34,1.643-1.949,2.697-3.588,2.357C44.052,42.275,42.998,40.668,43.339,39.025"/>
	<path fill="#0096BE" d="M32.07,5.893c0.34-1.641,1.947-2.696,3.59-2.356c1.641,0.344,2.695,1.949,2.354,3.591
		c-0.342,1.643-1.949,2.695-3.59,2.356C32.781,9.143,31.728,7.535,32.07,5.893"/>
	<path fill="#0096BE" d="M32.095,16.417c0.34-1.64,1.947-2.695,3.59-2.356c1.643,0.347,2.695,1.95,2.354,3.594
		s-1.949,2.694-3.59,2.354C32.806,19.669,31.753,18.061,32.095,16.417"/>
	<path fill="#0096BE" d="M32.203,27.073c0.342-1.64,1.949-2.694,3.592-2.354c1.643,0.343,2.695,1.949,2.354,3.59
		c-0.342,1.643-1.949,2.697-3.588,2.355C32.916,30.323,31.863,28.715,32.203,27.073"/>
	<path fill="#0096BE" d="M32.433,38.748c0.34-1.641,1.949-2.693,3.592-2.354c1.641,0.343,2.695,1.949,2.352,3.592
		c-0.342,1.641-1.947,2.695-3.588,2.355C33.146,41.998,32.093,40.393,32.433,38.748"/>
	<path fill="#0096BE" d="M21.349,6.319c0.34-1.642,1.949-2.692,3.59-2.353c1.643,0.344,2.697,1.949,2.352,3.59
		c-0.34,1.642-1.949,2.697-3.588,2.358C22.062,9.569,21.007,7.964,21.349,6.319"/>
	<path fill="#0096BE" d="M21.375,16.848c0.34-1.643,1.949-2.696,3.59-2.355c1.643,0.343,2.697,1.949,2.352,3.591
		c-0.34,1.641-1.949,2.695-3.588,2.355C22.087,20.097,21.033,18.489,21.375,16.848"/>
	<path fill="#0096BE" d="M21.484,27.5c0.34-1.641,1.949-2.695,3.59-2.355c1.643,0.345,2.697,1.949,2.352,3.593
		c-0.34,1.644-1.947,2.694-3.588,2.354S21.142,29.143,21.484,27.5"/>
	<path fill="#0096BE" d="M21.712,39.178c0.342-1.641,1.949-2.695,3.592-2.355c1.641,0.344,2.695,1.949,2.352,3.589
		c-0.34,1.644-1.949,2.698-3.588,2.358C22.425,42.428,21.371,40.819,21.712,39.178"/>
	<path fill="#0096BE" d="M11.103,16.703c0.342-1.641,1.949-2.693,3.592-2.354c1.643,0.344,2.695,1.95,2.354,3.592
		c-0.342,1.641-1.947,2.695-3.59,2.354C11.816,19.953,10.763,18.348,11.103,16.703"/>
	<path fill="#0096BE" d="M11.212,27.359c0.342-1.643,1.949-2.697,3.592-2.355c1.643,0.341,2.695,1.947,2.354,3.59
		c-0.342,1.644-1.949,2.697-3.59,2.354C11.927,30.609,10.873,29,11.212,27.359"/>
	<path fill="#0096BE" d="M11.443,39.035c0.34-1.641,1.949-2.695,3.59-2.355c1.643,0.344,2.697,1.948,2.354,3.592
		c-0.342,1.64-1.949,2.695-3.588,2.355C12.156,42.285,11.103,40.678,11.443,39.035"/>
	<path fill="#0096BE" d="M0.064,17.066c0.342-1.64,1.949-2.695,3.592-2.355c1.643,0.343,2.695,1.949,2.354,3.591
		c-0.342,1.641-1.949,2.696-3.588,2.356C0.777,20.316-0.276,18.709,0.064,17.066"/>
	<path fill="#0096BE" d="M0.173,27.719c0.342-1.641,1.949-2.693,3.592-2.352s2.695,1.949,2.354,3.59
		c-0.342,1.643-1.949,2.695-3.59,2.354C0.888,30.971-0.167,29.362,0.173,27.719"/>
	<path fill="#0096BE" d="M0.404,39.396c0.34-1.641,1.949-2.695,3.592-2.355c1.641,0.346,2.695,1.948,2.352,3.59
		c-0.342,1.645-1.949,2.697-3.59,2.355C1.117,42.646,0.064,41.037,0.404,39.396"/>
</g>
</svg>
