<svg version="1.1" id="Layer_1" xmlns="http://www.w3.org/2000/svg" xmlns:xlink="http://www.w3.org/1999/xlink" x="0px" y="0px"
	  viewBox="0 0 296.163 78.438" enable-background="new 0 0 296.163 78.438"
	 xml:space="preserve"><path fill="#FFFFFF" d="M19.609,0c92.185,0,184.369,0,276.553,0c0,26.146,0,52.292,0,78.438c-98.721,0-197.441,0-296.163,0
		C0,52.292,0,26.146,0,0c6.056,0,12.112,0,18.167,0c-2.652,0.947-3.499,3.771-0.908,6.304c-0.253,0.599-0.487,1.226-0.779,1.825
		c-0.52,1.064-0.458,1.954,0.713,2.508c1.075,0.509,1.959,0.115,2.485-1.104c0.625-1.448,1.245-2.899,1.816-4.369
		C22.507,2.555,22.058,1.367,19.609,0z M116.64,20.923c0.11-0.009,0.22-0.018,0.33-0.027c1.563,2.914,3.123,5.83,4.69,8.742
		c0.706,1.311,1.359,2.655,2.155,3.909c0.748,1.178,2.018,1.364,3.193,0.937c0.55-0.2,1.221-1.049,1.228-1.612
		c0.083-6.823,0.046-13.647,0.055-20.471c0.002-1.524-1.079-1.646-2.167-1.68c-1.538-0.048-2.145,0.479-2.15,1.815
		c-0.015,3.508-0.006,7.016-0.007,10.524c0,0.444,0,0.888,0,1.333c-1.975-3.254-3.665-6.531-5.379-9.795
		c-0.535-1.017-1.042-2.07-1.73-2.979c-0.878-1.162-2.208-1.145-3.413-0.687c-0.465,0.177-0.997,0.949-1.002,1.454
		c-0.065,6.871-0.055,13.744-0.014,20.615c0.002,0.44,0.35,1.196,0.648,1.257c0.893,0.183,1.921,0.312,2.738,0.02
		c0.441-0.158,0.765-1.21,0.789-1.873c0.091-2.496,0.037-4.996,0.038-7.495C116.64,23.583,116.64,22.253,116.64,20.923z
		 M150.75,22.622c0,3.361,0.04,6.723-0.02,10.083c-0.024,1.391,0.654,1.939,1.897,1.95c2.304,0.02,4.615,0.093,6.912-0.05
		c4.135-0.258,6.563-2.91,6.595-7.058c0.025-3.313,0.042-6.627-0.005-9.939c-0.056-3.797-2.165-6.298-5.936-6.725
		c-2.515-0.285-5.076-0.211-7.616-0.203c-1.218,0.004-1.885,0.612-1.853,2.002C150.8,15.995,150.749,19.309,150.75,22.622z
		 M196.604,22.487c0,3.361-0.006,6.722,0.002,10.083c0.004,1.624,0.394,2.063,2.023,2.088c2.207,0.035,4.42,0.068,6.624-0.04
		c4.025-0.196,6.624-2.752,6.718-6.648c0.084-3.503,0.072-7.011,0.002-10.514c-0.069-3.427-2.043-6.044-5.224-6.463
		c-2.788-0.367-5.643-0.286-8.468-0.289c-1.175-0.001-1.731,0.703-1.703,1.989C196.651,15.957,196.602,19.223,196.604,22.487z
		 M230.954,20.289c0-2.355,0.002-4.709,0-7.064c-0.002-2.036-0.443-2.535-2.209-2.515c-1.688,0.02-2.117,0.513-2.118,2.441
		c-0.002,4.709,0.022,9.418-0.012,14.127c-0.018,2.438-1.227,3.729-3.403,3.787c-2.21,0.059-3.445-1.132-3.657-3.55
		c-0.042-0.477-0.026-0.96-0.026-1.44c-0.002-4.565-0.02-9.13,0.006-13.695c0.008-1.451-0.979-1.623-2.025-1.646
		c-1.013-0.022-2.193-0.005-2.2,1.427c-0.024,5.573-0.095,11.15,0.083,16.718c0.089,2.795,1.706,4.825,4.495,5.492
		c1.552,0.372,3.241,0.516,4.823,0.344c4.084-0.443,6.196-2.944,6.24-7.075C230.975,25.19,230.954,22.739,230.954,20.289z
		 M100.875,29.45c3.621,0,3.621,0,4.602,3.416c0.013,0.046,0.014,0.095,0.027,0.141c0.454,1.538,1.171,1.948,2.657,1.519
		c1.546-0.446,1.981-1.222,1.509-2.77c-1.943-6.367-3.893-12.731-5.848-19.094c-0.503-1.637-1.201-2.131-2.939-2.138
		c-1.891-0.006-2.57,0.449-3.087,2.132c-1.954,6.362-3.901,12.726-5.845,19.09c-0.491,1.607-0.117,2.279,1.493,2.752
		c1.531,0.45,2.188,0.084,2.647-1.473C97.148,29.45,97.148,29.45,100.875,29.45z M270.881,29.452
		c0.417,1.444,0.777,2.736,1.166,4.02c0.424,1.399,1.496,1.341,2.565,1.006c1.048-0.329,2.043-0.841,1.611-2.249
		c-2.053-6.696-4.125-13.385-6.189-20.078c-0.447-1.45-1.62-1.625-2.874-1.612c-1.256,0.013-2.374,0.22-2.821,1.689
		c-2.024,6.653-4.093,13.294-6.123,19.945c-0.364,1.192,0.185,1.951,1.648,2.333c1.099,0.286,2.131,0.313,2.521-1.101
		c0.294-1.063,0.558-2.141,0.952-3.168c0.128-0.335,0.617-0.741,0.953-0.752C266.448,29.418,268.607,29.452,270.881,29.452z
		 M139.474,10.524c-1.835,0-2.524,0.478-3.049,2.182c-1.958,6.362-3.907,12.726-5.851,19.091c-0.469,1.536-0.024,2.287,1.569,2.73
		c1.489,0.415,2.146,0.02,2.606-1.565c1.019-3.513,1.019-3.513,4.68-3.513c3.677,0,3.677,0,4.707,3.471
		c0.494,1.665,1.159,2.049,2.718,1.572c1.56-0.478,1.939-1.184,1.448-2.79c-1.931-6.32-3.872-12.637-5.811-18.955
		C141.958,11.013,141.29,10.524,139.474,10.524z M47.994,34.928c5.243,0.007,7.911-1.876,8.698-5.45
		c0.783-3.554-0.66-6.602-4.047-8.376c-1.613-0.845-3.31-1.531-4.926-2.371c-0.897-0.466-1.491-1.235-1.32-2.346
		c0.18-1.166,1.005-1.685,2.059-1.935c1.71-0.407,3.316-0.124,4.887,0.649c1.567,0.771,2.922,0.033,2.841-1.674
		c-0.032-0.675-0.707-1.603-1.337-1.916c-2.265-1.126-4.733-1.161-7.175-0.689c-3.286,0.634-5.193,2.403-5.598,5.017
		c-0.509,3.287,0.742,5.653,3.889,7.286c0.979,0.508,2.006,0.921,2.983,1.431c0.848,0.442,1.871,0.789,2.426,1.487
		c0.59,0.745,1.107,1.93,0.939,2.78c-0.151,0.765-1.166,1.631-1.991,1.938c-2.167,0.806-3.981-0.166-5.675-1.543
		c-0.477-0.388-1.557-0.735-1.862-0.487c-0.628,0.509-1.247,1.429-1.257,2.188c-0.009,0.706,0.632,1.594,1.239,2.102
		C44.536,34.499,46.71,34.902,47.994,34.928z M63.572,25.698c1.648,0,3.039,0.036,4.427-0.007c3.34-0.104,5.902-1.75,6.511-4.638
		c0.384-1.821,0.389-3.837,0.048-5.669c-0.486-2.609-2.393-4.202-5.02-4.458c-2.81-0.274-5.652-0.233-8.481-0.261
		c-1.212-0.012-1.751,0.641-1.743,1.932c0.044,6.676,0.017,13.353,0.025,20.029c0.002,1.524,0.536,2.013,2.115,2.013
		c1.589,0,2.103-0.469,2.114-2.005C63.584,30.384,63.572,28.135,63.572,25.698z M282.937,22.85c0.004,0,0.008,0,0.012,0
		c0-1.825-0.087-3.655,0.025-5.473c0.107-1.73,1.16-2.667,2.883-2.854c2.09-0.228,3.279,0.728,3.747,3.01
		c0.253,1.233,1.022,1.672,2.609,1.548c1.172-0.092,1.679-0.705,1.727-1.866c0.1-2.404-0.906-4.198-2.959-5.361
		c-1.99-1.127-4.164-1.385-6.415-1.04c-3.729,0.573-5.897,2.854-6.002,6.57c-0.101,3.602-0.094,7.21-0.002,10.812
		c0.093,3.634,2.265,6.04,5.872,6.503c1.354,0.174,2.793,0.141,4.135-0.109c3.503-0.652,5.566-3.318,5.365-6.601
		c-0.068-1.105-0.6-1.661-1.676-1.774c-1.746-0.184-2.428,0.329-2.728,2.081c-0.329,1.929-1.47,2.864-3.386,2.776
		c-1.883-0.086-3.087-1.158-3.188-3.035C282.864,26.312,282.937,24.579,282.937,22.85z M29.365,14.488
		c2.979,0,5.809-0.039,8.638,0.017c1.32,0.026,1.823-0.609,1.866-1.81c0.049-1.374-0.485-2.04-1.801-2.05
		c-3.651-0.027-7.303-0.039-10.953,0.01c-1.669,0.022-2.094,0.533-2.095,2.189c-0.004,6.485-0.004,12.971-0.002,19.457
		c0,2.014,0.31,2.352,2.325,2.365c3.411,0.022,6.821,0.012,10.232,0.008c1.785-0.002,2.313-0.465,2.287-1.969
		c-0.026-1.479-0.491-1.878-2.227-1.882c-2.731-0.006-5.462-0.001-8.262-0.001c0-2.2,0-4.284,0-6.527
		c1.587,0,3.065-0.02,4.544,0.006c1.164,0.02,1.675-0.567,1.663-1.673c-0.012-1.096-0.508-1.687-1.684-1.655
		c-1.476,0.04-2.953,0.009-4.531,0.009C29.365,18.789,29.365,16.75,29.365,14.488z M174.128,14.489c3.041,0,5.919-0.022,8.797,0.01
		c1.283,0.014,1.673-0.711,1.704-1.814c0.031-1.076-0.28-2.007-1.52-2.022c-3.842-0.046-7.686-0.036-11.527,0.018
		c-1.13,0.016-1.829,0.532-1.819,1.884c0.048,6.725,0.043,13.45,0.004,20.175c-0.008,1.298,0.57,1.896,1.774,1.906
		c3.842,0.03,7.687,0.071,11.525-0.04c0.527-0.016,1.331-0.786,1.485-1.349c0.438-1.591-0.341-2.427-2.019-2.434
		c-2.774-0.01-5.55-0.003-8.393-0.003c0-2.223,0-4.303,0-6.523c1.593,0,3.072-0.02,4.552,0.006c1.171,0.021,1.674-0.595,1.662-1.684
		c-0.012-1.09-0.531-1.678-1.7-1.647c-1.475,0.04-2.95,0.01-4.526,0.01C174.128,18.779,174.128,16.74,174.128,14.489z
		 M294.939,60.725c-0.001-0.108-0.001-0.216-0.001-0.324c-97.903,0-195.807,0-293.71,0c0,0.108,0,0.216,0,0.324
		C99.132,60.725,197.035,60.725,294.939,60.725z M95.323,50.015c-0.115,0.021-0.23,0.041-0.346,0.062
		c-0.975-1.859-1.943-3.722-2.927-5.576c-0.606-1.143-1.078-2.412-1.913-3.356c-0.486-0.549-1.566-0.713-2.391-0.746
		c-0.308-0.013-0.929,0.835-0.935,1.297c-0.071,4.848-0.041,9.697-0.049,14.546c-0.002,1.081,0.679,1.433,1.581,1.442
		c0.916,0.011,1.587-0.372,1.587-1.434c0.001-2.4-0.003-4.801,0.006-7.201c0.002-0.389,0.064-0.776,0.133-1.57
		c0.59,1.086,0.976,1.797,1.361,2.507c1.188,2.193,2.282,4.445,3.62,6.542c0.385,0.604,1.448,0.919,2.25,1.037
		c0.297,0.043,1.05-0.854,1.058-1.332c0.081-4.896,0.045-9.793,0.056-14.689c0.002-1.171-0.789-1.282-1.656-1.292
		c-0.9-0.011-1.445,0.341-1.435,1.357c0.024,2.353,0.003,4.705,0.001,7.057C95.322,49.115,95.323,49.565,95.323,50.015z
		 M76.296,49.93c-0.126,0.037-0.252,0.074-0.378,0.111c-1.283-2.459-2.557-4.923-3.854-7.373c-0.335-0.633-0.61-1.451-1.156-1.778
		c-0.66-0.396-1.588-0.496-2.38-0.442c-0.292,0.021-0.753,0.84-0.759,1.3c-0.056,4.805-0.028,9.61-0.04,14.415
		c-0.003,1.248,0.773,1.575,1.792,1.513c1.075-0.065,1.405-0.759,1.389-1.788c-0.042-2.658-0.014-5.317-0.014-7.977
		c1.074,1.306,1.83,2.675,2.576,4.049c0.848,1.561,1.563,3.215,2.59,4.646c0.419,0.585,1.485,0.832,2.296,0.94
		c0.277,0.037,0.965-0.811,0.972-1.262c0.071-4.9,0.075-9.803-0.007-14.703c-0.007-0.44-0.68-1.133-1.158-1.253
		c-1.3-0.327-1.857,0.211-1.864,1.569C76.286,44.576,76.296,47.253,76.296,49.93z M267.857,47.942
		c0.113-0.021,0.227-0.042,0.34-0.063c0.235,0.414,0.478,0.825,0.704,1.244c1.322,2.449,2.639,4.901,3.963,7.35
		c0.516,0.956,1.308,1.369,2.392,1.164c1.188-0.226,1.089-1.135,1.087-2.017c-0.009-4.564-0.033-9.13,0.014-13.694
		c0.012-1.186-0.458-1.672-1.597-1.672c-1.087,0.001-1.536,0.486-1.518,1.595c0.046,2.717,0.016,5.436,0.016,8.154
		c-1.051-1.267-1.751-2.608-2.461-3.946c-0.854-1.61-1.689-3.231-2.587-4.818c-0.594-1.048-1.675-1.283-2.618-0.825
		c-0.482,0.234-0.849,1.195-0.858,1.835c-0.073,4.468-0.016,8.938-0.057,13.405c-0.012,1.177,0.234,2.027,1.584,2.04
		c1.353,0.012,1.634-0.832,1.611-2.013C267.825,53.102,267.857,50.522,267.857,47.942z M225.618,48.135
		c0.348-0.182,0.558-0.235,0.689-0.367c1.511-1.507,1.621-3.329,0.958-5.195c-0.639-1.797-2.206-2.279-3.939-2.312
		c-1.632-0.031-3.264,0.013-4.896-0.015c-1.16-0.02-1.625,0.507-1.617,1.663c0.029,4.703,0.034,9.406,0,14.109
		c-0.009,1.181,0.526,1.677,1.63,1.686c1.536,0.011,3.072,0.017,4.607,0.003c2.582-0.022,4.178-0.965,4.695-2.986
		C228.308,52.519,228.485,49.677,225.618,48.135z M248.428,30.821c0-0.705,0-1.274,0-1.844c-0.001-5.429,0.003-10.858-0.007-16.287
		c-0.003-1.521-0.526-1.987-2.131-1.978s-2.103,0.471-2.104,2c-0.006,6.582-0.006,13.164-0.003,19.746
		c0.001,1.81,0.35,2.187,2.193,2.204c3.122,0.028,6.246,0.021,9.368,0.007c1.437-0.006,2.08-0.647,1.997-2.002
		c-0.074-1.218-0.594-1.919-1.996-1.87C253.356,30.882,250.96,30.821,248.428,30.821z M5.036,30.823c0-0.717,0-1.283,0-1.849
		C5.035,23.546,5.039,18.119,5.03,12.691c-0.002-1.522-0.488-1.958-2.126-1.979c-1.584-0.021-2.106,0.458-2.108,1.987
		c-0.005,6.58-0.004,13.16-0.001,19.74c0.001,1.804,0.368,2.207,2.176,2.224c3.122,0.029,6.244,0.021,9.366,0.008
		c1.442-0.006,2.055-0.633,2.029-1.99c-0.025-1.297-0.601-1.848-1.993-1.855C10.022,30.814,7.671,30.823,5.036,30.823z
		 M82.034,30.821c0-0.628,0-1.148,0-1.668c-0.002-5.43-0.001-10.859-0.009-16.288c-0.002-1.682-0.476-2.157-2.101-2.157
		c-1.645,0.001-2.132,0.478-2.133,2.123c-0.003,6.486-0.004,12.973,0,19.459c0.001,2.013,0.326,2.364,2.318,2.379
		c3.075,0.023,6.15,0.016,9.225,0.001c1.437-0.007,2.097-0.652,2.017-1.985c-0.073-1.211-0.573-1.934-1.982-1.886
		C86.976,30.88,84.578,30.821,82.034,30.821z M0.831,48.87c0,2.353,0.043,4.706-0.018,7.057c-0.032,1.237,0.492,1.781,1.681,1.781
		c1.44,0.001,2.883,0.053,4.32-0.012c3.151-0.144,4.961-1.653,5.15-4.69c0.179-2.862,0.118-5.759-0.098-8.62
		c-0.182-2.416-1.853-3.883-4.291-4.058c-1.72-0.123-3.454-0.059-5.181-0.078c-1.157-0.014-1.604,0.56-1.58,1.708
		C0.865,44.26,0.83,46.565,0.831,48.87z M60.043,49.04c0-1.294,0.049-2.591-0.01-3.883c-0.137-2.991-1.906-4.715-4.942-4.889
		c-3.693-0.211-5.886,1.158-6.136,4.292c-0.244,3.042-0.041,6.12-0.011,9.182c0.003,0.323,0.135,0.654,0.248,0.966
		c0.92,2.539,3.894,3.746,7.148,2.909c2.3-0.592,3.574-2.172,3.693-4.693C60.094,51.631,60.043,50.334,60.043,49.04z M247.166,56.54
		c-0.142-0.532-0.186-0.72-0.242-0.902c-1.446-4.719-2.899-9.435-4.337-14.155c-0.322-1.058-1.12-1.402-2.094-1.409
		c-1.029-0.007-1.842,0.345-2.184,1.476c-1.411,4.683-2.832,9.361-4.312,14.022c-0.381,1.201,0.134,1.694,1.144,2.017
		c1.085,0.347,1.626-0.154,1.879-1.157c0.152-0.604,0.264-1.233,0.524-1.79c0.146-0.314,0.552-0.709,0.851-0.718
		c1.53-0.044,3.153-0.256,4.557,0.186c0.603,0.19,0.634,1.892,1.157,2.767c0.246,0.411,1.086,0.743,1.58,0.658
		C246.26,57.436,246.748,56.841,247.166,56.54z M109.034,43.002c2.091,0,4.051-0.018,6.01,0.007
		c0.981,0.013,1.561-0.339,1.586-1.396c0.025-1.089-0.557-1.389-1.548-1.377c-2.499,0.03-4.998,0.016-7.496-0.01
		c-1.234-0.012-1.825,0.436-1.809,1.787c0.057,4.613,0.059,9.227-0.001,13.84c-0.019,1.42,0.609,1.877,1.901,1.862
		c2.354-0.025,4.709-0.022,7.063,0.001c0.992,0.01,1.862-0.042,1.891-1.36c0.029-1.317-0.804-1.428-1.82-1.412
		c-1.906,0.028-3.813,0.008-5.749,0.008c0-1.685,0-3.147,0-4.74c1.003,0,1.906-0.028,2.808,0.008
		c0.941,0.037,1.681-0.207,1.664-1.288c-0.016-0.996-0.715-1.227-1.6-1.191c-0.943,0.037-1.89,0.008-2.902,0.008
		C109.034,46.097,109.034,44.666,109.034,43.002z M164.05,43.002c2.156,0,4.071-0.02,5.985,0.009
		c1.022,0.015,1.678-0.285,1.677-1.445c-0.001-1.119-0.661-1.336-1.605-1.326c-2.497,0.025-4.995,0.041-7.491,0.001
		c-1.301-0.021-1.771,0.525-1.757,1.821c0.05,4.609,0.052,9.22-0.001,13.829c-0.015,1.327,0.553,1.828,1.794,1.821
		c2.497-0.013,4.995-0.021,7.491,0.007c0.988,0.011,1.54-0.322,1.562-1.393c0.022-1.116-0.594-1.39-1.554-1.379
		c-1.681,0.021-3.363,0.043-5.041-0.026c-0.357-0.016-0.98-0.396-1-0.646c-0.101-1.313-0.048-2.639-0.048-4.065
		c1.216,0,2.241,0.127,3.209-0.053c0.5-0.094,1.178-0.67,1.282-1.139c0.186-0.829-0.416-1.296-1.307-1.277
		c-0.72,0.015-1.441-0.024-2.16,0.01c-0.715,0.033-1.067-0.213-1.046-0.98C164.076,45.581,164.05,44.388,164.05,43.002z
		 M289.629,40.044c-4.377,0.05-6.569,2.159-6.242,5.463c0.167,1.692,1.132,2.812,2.561,3.584c1.307,0.705,2.746,1.223,3.911,2.107
		c0.589,0.448,1.098,1.634,0.917,2.285c-0.179,0.646-1.202,1.277-1.973,1.49c-1.404,0.388-2.568-0.386-3.668-1.246
		c-0.334-0.261-1.123-0.401-1.378-0.194c-0.426,0.344-0.865,1.054-0.792,1.533c0.088,0.574,0.605,1.208,1.112,1.569
		c1.731,1.234,3.709,1.46,5.772,1.117c2.72-0.451,4.416-2.553,4.238-5.282c-0.128-1.957-0.969-3.505-2.736-4.442
		c-1.312-0.696-2.712-1.241-3.964-2.026c-0.469-0.294-0.917-1.111-0.853-1.626c0.064-0.513,0.75-1.298,1.219-1.34
		c1.193-0.107,2.459-0.021,3.617,0.285c0.952,0.25,1.672,0.474,2.113-0.632c0.423-1.058-0.123-1.717-1.034-2.007
		C291.365,40.336,290.219,40.172,289.629,40.044z M184.617,40.071c-4.443-0.138-6.826,2.056-6.485,5.454
		c0.183,1.828,1.328,2.921,2.828,3.725c1.141,0.61,2.339,1.117,3.467,1.748c0.967,0.54,1.49,1.417,1.185,2.536
		c-0.314,1.153-1.312,1.613-2.355,1.462s-2.08-0.581-3.029-1.064c-0.735-0.375-1.351-1.067-2.107-0.146
		c-0.745,0.907-0.61,1.787,0.263,2.522c1.734,1.459,3.774,1.783,5.949,1.477c2.699-0.381,4.271-1.968,4.469-4.626
		c0.154-2.056-0.52-3.824-2.365-4.908c-1.319-0.774-2.795-1.292-4.08-2.113c-0.544-0.348-1.139-1.232-1.058-1.775
		c0.084-0.557,0.925-1.342,1.506-1.409c1.089-0.126,2.28,0.038,3.335,0.375c0.979,0.312,1.688,0.414,2.105-0.656
		c0.405-1.039-0.137-1.707-1.058-2.005C186.189,40.343,185.14,40.188,184.617,40.071z M36.178,53.093
		c-0.097,0.01-0.193,0.02-0.289,0.03c-0.141-0.449-0.292-0.896-0.42-1.348c-0.981-3.456-1.98-6.906-2.923-10.373
		c-0.303-1.116-1-1.33-1.956-1.049c-0.956,0.281-1.419,0.828-1.068,1.94c1.456,4.616,2.867,9.246,4.266,13.879
		c0.344,1.139,1.061,1.636,2.221,1.625c1.138-0.011,1.858-0.432,2.208-1.615c1.359-4.592,2.767-9.17,4.213-13.734
		c0.35-1.103,0.095-1.768-0.99-2.093c-1.148-0.344-1.733,0.07-2.051,1.277C38.38,45.469,37.257,49.276,36.178,53.093z
		 M147.894,54.958c0-0.721,0-1.237,0-1.754c0-3.748-0.024-7.496,0.013-11.244c0.011-1.141-0.4-1.718-1.576-1.71
		c-1.125,0.008-1.629,0.476-1.618,1.666c0.042,4.66,0.048,9.322-0.004,13.983c-0.015,1.334,0.566,1.822,1.803,1.813
		c2.114-0.014,4.229-0.032,6.343,0.009c1.002,0.02,1.734-0.2,1.765-1.358c0.032-1.286-0.804-1.438-1.834-1.415
		C151.213,54.985,149.64,54.958,147.894,54.958z M154.01,70.723c0.105,0.018,0.212,0.036,0.317,0.054
		c0,1.812,0.009,3.624-0.005,5.437c-0.006,0.767,0.191,1.366,1.086,1.363c0.927-0.003,1.023-0.65,1.02-1.394
		c-0.014-2.835,0.034-5.672-0.034-8.505c-0.014-0.574-0.28-1.436-0.694-1.646c-0.864-0.44-1.518,0.204-1.955,0.979
		c-0.624,1.104-1.248,2.208-1.964,3.475c-0.792-1.399-1.388-2.667-2.199-3.775c-0.313-0.429-1.112-0.64-1.701-0.661
		c-0.239-0.009-0.717,0.749-0.726,1.165c-0.063,3.074-0.062,6.15-0.022,9.226c0.013,0.962,0.83,1.477,1.537,0.989
		c0.308-0.213,0.508-0.777,0.52-1.189c0.054-1.874,0.023-3.751,0.023-5.627c0.783,0.799,1.213,1.646,1.699,2.461
		c0.548,0.917,1.171,0.938,1.74,0.015C153.128,72.315,153.559,71.512,154.01,70.723z M192.601,72.225
		c-0.087,0.01-0.173,0.02-0.26,0.029c-0.098-0.162-0.204-0.32-0.292-0.488c-0.874-1.655-1.668-3.36-2.664-4.938
		c-0.297-0.472-1.139-0.667-1.771-0.81c-0.147-0.033-0.658,0.663-0.664,1.03c-0.056,3.122-0.041,6.245-0.03,9.368
		c0.004,0.935,0.552,1.383,1.397,1.061c0.336-0.129,0.644-0.784,0.663-1.213c0.076-1.673,0.03-3.352,0.03-5.027
		c0.51,0.261,0.687,0.539,0.844,0.829c0.846,1.562,1.617,3.171,2.572,4.661c0.276,0.433,1.067,0.658,1.644,0.703
		c0.185,0.014,0.62-0.854,0.63-1.325c0.059-2.931,0.021-5.862,0.035-8.793c0.004-0.737-0.056-1.364-1.017-1.381
		c-1.022-0.019-1.139,0.617-1.125,1.431C192.62,68.983,192.601,70.604,192.601,72.225z M97.703,72.556
		c0.236-0.183,0.419-0.322,0.601-0.465c1.27-0.992,1.744-2.521,1.219-4.114c-0.471-1.43-1.597-1.971-3.001-2.024
		c-1.151-0.044-2.311-0.099-3.452,0.011c-0.366,0.035-0.97,0.573-0.977,0.893c-0.071,3.263-0.072,6.529,0.006,9.792
		c0.008,0.321,0.662,0.859,1.028,0.871c0.322,0.009,0.889-0.543,0.948-0.912c0.144-0.89-0.002-1.822,0.083-2.727
		c0.037-0.39,0.358-0.751,0.551-1.126c0.373,0.228,0.892,0.367,1.092,0.699c0.668,1.105,1.147,2.33,1.86,3.401
		c0.242,0.363,0.962,0.408,1.464,0.598c0.124-0.521,0.487-1.135,0.327-1.544C99.02,74.802,98.363,73.782,97.703,72.556z
		 M256.897,49.028c0.001,0,0.003,0,0.004,0c0-2.398-0.022-4.796,0.01-7.193c0.016-1.103-0.479-1.572-1.553-1.578
		c-1.119-0.006-1.647,0.432-1.638,1.632c0.04,4.7,0.038,9.4,0.002,14.1c-0.009,1.174,0.531,1.702,1.622,1.7
		c1.128-0.002,1.589-0.619,1.566-1.754C256.864,53.632,256.897,51.33,256.897,49.028z M22.735,48.887
		c0-2.35-0.025-4.699,0.011-7.048c0.017-1.097-0.457-1.589-1.536-1.588c-1.106,0.001-1.66,0.437-1.65,1.635
		c0.036,4.698,0.036,9.396-0.001,14.095c-0.009,1.173,0.534,1.709,1.616,1.707c1.113-0.002,1.598-0.614,1.576-1.754
		C22.706,53.585,22.737,51.236,22.735,48.887z M21.166,72.493c1.293,0,2.375,0,3.601,0c0,1.308,0.024,2.543-0.009,3.776
		c-0.021,0.814,0.305,1.427,1.118,1.257c0.406-0.085,0.962-0.779,0.974-1.21c0.082-3.066,0.03-6.136,0.047-9.204
		c0.004-0.761-0.267-1.185-1.069-1.186c-0.805-0.001-1.085,0.43-1.069,1.187c0.024,1.138,0.006,2.275,0.006,3.496
		c-1.244,0-2.32,0-3.593,0c0-1.214-0.02-2.354,0.007-3.491c0.018-0.748-0.258-1.341-1.033-1.14c-0.428,0.11-1.013,0.742-1.024,1.152
		c-0.086,3.066-0.087,6.137,0.001,9.202c0.013,0.43,0.657,0.841,1.008,1.261c0.345-0.411,0.939-0.795,0.986-1.237
		C21.253,75.089,21.166,73.799,21.166,72.493z M167.803,70.535c0,1.152-0.035,2.306,0.008,3.456c0.09,2.452,1.378,3.653,3.855,3.654
		c2.479,0.001,3.809-1.182,3.888-3.617c0.073-2.254,0.015-4.512,0.024-6.768c0.003-0.752-0.14-1.337-1.082-1.333
		c-0.977,0.004-1.026,0.638-1.022,1.367c0.011,2.112,0.021,4.225-0.002,6.336c-0.017,1.559-0.598,2.211-1.854,2.173
		c-1.438-0.043-1.692-1.003-1.69-2.171c0.004-1.969,0.017-3.937-0.008-5.904c-0.01-0.762,0.296-1.772-1.02-1.792
		c-1.42-0.021-1.062,1.062-1.093,1.863C167.773,68.709,167.799,69.623,167.803,70.535z M273.622,65.326
		c-0.653,0.737-1.251,1.128-1.428,1.658c-0.985,2.95-1.862,5.937-2.792,8.906c-0.228,0.729-0.23,1.316,0.637,1.606
		c0.937,0.312,1.241-0.275,1.361-0.99c0.177-1.049,0.605-1.614,1.796-1.474c1.115,0.131,2.484-0.399,2.697,1.438
		c0.082,0.715,0.377,1.329,1.323,1.035c0.849-0.263,0.917-0.795,0.673-1.567c-0.938-2.967-1.791-5.961-2.775-8.912
		C274.926,66.465,274.282,66.056,273.622,65.326z M64.42,76.763c-0.152-0.53-0.238-0.854-0.336-1.174
		c-0.858-2.79-1.746-5.571-2.56-8.374c-0.245-0.845-0.632-1.391-1.546-1.395c-0.901-0.004-1.325,0.504-1.575,1.359
		c-0.846,2.893-1.748,5.771-2.662,8.643c-0.25,0.787-0.304,1.409,0.655,1.699c0.96,0.291,1.226-0.368,1.321-1.055
		c0.17-1.217,0.832-1.452,1.975-1.454c1.378-0.003,2.445,0.064,2.632,1.782c0.03,0.281,0.734,0.673,1.128,0.674
		C63.792,77.47,64.134,76.989,64.42,76.763z M254.175,73.415c1.209-0.135,2.225-0.154,3.193-0.378
		c1.632-0.376,2.529-1.86,2.406-3.754c-0.13-1.979-1.121-3.158-2.923-3.309c-1.191-0.1-2.396-0.021-3.594-0.066
		c-0.885-0.034-1.181,0.398-1.178,1.219c0.014,3.069-0.035,6.14,0.053,9.207c0.012,0.429,0.657,0.84,1.009,1.259
		c0.344-0.41,0.915-0.785,0.986-1.239C254.281,75.382,254.175,74.372,254.175,73.415z M112.961,67.718
		c1.363,0,2.608,0.073,3.837-0.04c0.424-0.039,1.075-0.478,1.156-0.839c0.204-0.903-0.558-0.922-1.209-0.923
		c-1.536-0.001-3.072,0.016-4.607-0.011c-0.965-0.017-1.38,0.381-1.369,1.373c0.034,2.975,0.029,5.951,0.005,8.926
		c-0.007,0.967,0.389,1.419,1.364,1.408c1.583-0.019,3.171,0.056,4.749-0.05c0.392-0.026,0.749-0.59,1.122-0.906
		c-0.393-0.295-0.766-0.809-1.182-0.845c-1.263-0.112-2.543-0.041-3.828-0.041c0-1.161,0-2.088,0-3.054
		c0.449-0.036,0.781-0.047,1.109-0.093c0.692-0.097,1.791,0.337,1.797-0.834c0.008-1.3-1.161-0.769-1.881-0.881
		c-0.323-0.05-0.656-0.042-1.064-0.064C112.961,69.854,112.961,68.914,112.961,67.718z M40.29,67.725
		c1.42,0,2.671,0.078,3.903-0.044c0.407-0.04,0.764-0.594,1.145-0.913c-0.356-0.282-0.7-0.788-1.071-0.808
		c-1.628-0.09-3.264-0.02-4.896-0.047c-0.933-0.016-1.272,0.416-1.266,1.315c0.021,3.025,0.013,6.051,0,9.076
		c-0.004,0.908,0.421,1.312,1.317,1.305c1.584-0.013,3.173,0.059,4.751-0.044c0.404-0.026,0.775-0.571,1.161-0.878
		c-0.383-0.306-0.746-0.839-1.154-0.876c-1.265-0.115-2.546-0.042-3.857-0.042c0-1.16,0-2.088,0-3.053
		c0.445-0.037,0.779-0.047,1.106-0.096c0.688-0.104,1.772,0.357,1.803-0.826c0.03-1.193-1.038-0.82-1.744-0.887
		c-0.372-0.035-0.745-0.053-1.198-0.083C40.29,69.823,40.29,68.885,40.29,67.725z M219.612,71.791
		c0.046,0.003,0.091,0.006,0.137,0.009c0,0.912-0.01,1.825,0.007,2.737c0.005,0.235,0.077,0.474,0.142,0.704
		c0.453,1.627,1.675,2.432,3.638,2.403c1.92-0.027,3.331-0.915,3.587-2.472c0.083-0.502-0.245-1.377-0.644-1.583
		c-0.626-0.323-1.276-0.018-1.387,0.913c-0.118,0.988-0.791,1.369-1.746,1.293c-0.989-0.079-1.47-0.68-1.491-1.614
		c-0.035-1.585-0.036-3.173,0.004-4.758c0.022-0.91,0.45-1.567,1.446-1.671c0.952-0.1,1.625,0.29,1.788,1.254
		c0.151,0.887,0.757,1.251,1.402,0.905c0.397-0.213,0.706-1.083,0.63-1.594c-0.221-1.479-1.61-2.349-3.484-2.393
		c-2.026-0.048-3.303,0.667-3.673,2.299C219.705,69.379,219.72,70.599,219.612,71.791z M201.206,51.364
		c1.44,0,2.881-0.016,4.321,0.005c1.243,0.019,1.753-0.745,1.782-1.807c0.03-1.054-0.428-1.92-1.654-1.933
		c-2.833-0.031-5.666-0.021-8.499-0.004c-1.286,0.008-1.603,0.904-1.586,1.953c0.016,1.01,0.401,1.787,1.603,1.784
		C198.517,51.36,199.861,51.363,201.206,51.364z M129.008,51.366c1.393,0,2.785-0.005,4.177,0.001
		c1.244,0.006,1.729-0.784,1.741-1.846c0.011-1.062-0.475-1.884-1.701-1.892c-2.785-0.019-5.569-0.002-8.354-0.009
		c-1.265-0.004-1.677,0.777-1.688,1.862c-0.01,1.171,0.457,1.929,1.792,1.892C126.319,51.337,127.665,51.366,129.008,51.366z
		 M3.424,67.722c0,0.62,0,1.086,0,1.552c0.001,2.255,0.012,4.509-0.003,6.763c-0.006,0.771,0.018,1.519,1.031,1.536
		c1.101,0.021,1.131-0.767,1.11-1.593c-0.027-1.055-0.006-2.11-0.006-3.166c0-1.657,0-3.315,0-5.017
		c0.839-0.038,1.488,0.036,2.066-0.132c0.338-0.098,0.782-0.585,0.779-0.893c-0.003-0.286-0.527-0.8-0.837-0.812
		c-2.011-0.075-4.028-0.083-6.039-0.001c-0.344,0.014-0.666,0.563-0.998,0.865c0.348,0.299,0.654,0.745,1.055,0.86
		C2.102,67.835,2.698,67.722,3.424,67.722z M76.385,67.797c0,0.551,0,1.019,0,1.486c0,2.205,0.006,4.41-0.003,6.615
		c-0.003,0.789-0.074,1.644,1.04,1.675c1.113,0.031,1.116-0.785,1.096-1.601c-0.023-0.958-0.005-1.917-0.005-2.875
		c0-1.754,0-3.508,0-5.375c0.647,0,1.074,0.009,1.499-0.002c0.67-0.017,1.417,0.079,1.403-0.957
		c-0.013-0.976-0.731-0.839-1.334-0.843c-1.774-0.013-3.547-0.005-5.321-0.005c-0.646,0-1.433,0.01-1.218,0.903
		c0.091,0.381,0.803,0.693,1.293,0.873C75.255,67.847,75.761,67.767,76.385,67.797z M290.808,75.774c0-0.74,0.001-1.258,0-1.775
		c0-2.299-0.011-4.599,0.005-6.898c0.006-0.753-0.291-1.312-1.062-1.127c-0.405,0.098-0.98,0.677-0.99,1.051
		c-0.083,3.112-0.048,6.227-0.056,9.341c-0.002,0.83,0.403,1.238,1.228,1.239c1.438,0.001,2.879,0.061,4.31-0.038
		c0.375-0.026,0.716-0.546,1.072-0.838c-0.37-0.318-0.712-0.859-1.116-0.91C293.167,75.687,292.106,75.774,290.808,75.774z
		 M240.332,71.803c0.002,0,0.004,0,0.007,0c0-1.584,0.062-3.172-0.044-4.749c-0.027-0.395-0.54-0.978-0.932-1.08
		c-0.731-0.19-1.126,0.297-1.123,1.082c0.01,3.12-0.036,6.241,0.056,9.358c0.011,0.398,0.708,0.776,1.088,1.164
		c0.316-0.39,0.876-0.761,0.905-1.171C240.397,74.879,240.332,73.339,240.332,71.803z M208.325,71.813c0.002,0,0.004,0,0.005,0
		c0-1.583,0.062-3.17-0.044-4.745c-0.026-0.396-0.534-0.972-0.928-1.081c-0.743-0.208-1.125,0.295-1.123,1.069
		c0.006,3.118-0.036,6.237,0.054,9.353c0.012,0.398,0.699,0.778,1.074,1.166c0.32-0.386,0.889-0.753,0.918-1.16
		C208.391,74.888,208.325,73.348,208.325,71.813z M61.704,64.454c0.121-0.107,0.396-0.239,0.407-0.391
		c0.018-0.248-0.064-0.572-0.227-0.756c-0.96-1.085-2.846-1.08-3.875,0.021c-0.185,0.198-0.179,0.573-0.262,0.866
		c0.294,0.03,0.679,0.194,0.866,0.067c0.886-0.602,1.719-0.714,2.587-0.002C61.305,64.345,61.463,64.365,61.704,64.454z
		 M41.138,64.822c0.904-0.629,1.692-1.177,2.481-1.726c-0.213-0.259-0.571-0.768-0.62-0.739c-0.852,0.491-1.667,1.048-2.49,1.591
		C40.683,64.19,40.857,64.432,41.138,64.822z"/>
	<path fill-rule="evenodd" clip-rule="evenodd" d="M19.609,0c2.449,1.367,2.898,2.555,1.885,5.165
		c-0.571,1.47-1.191,2.921-1.816,4.369c-0.526,1.219-1.41,1.612-2.485,1.104c-1.172-0.554-1.233-1.444-0.713-2.508
		c0.292-0.599,0.526-1.226,0.779-1.825C14.669,3.771,15.516,0.947,18.167,0C18.648,0,19.129,0,19.609,0z"/>
	<path fill-rule="evenodd" clip-rule="evenodd" d="M116.64,20.923c0,1.33,0,2.659,0,3.989c0,2.499,0.053,5-0.038,7.495
		c-0.024,0.662-0.348,1.715-0.789,1.873c-0.817,0.292-1.845,0.163-2.738-0.02c-0.299-0.061-0.646-0.817-0.648-1.257
		c-0.042-6.872-0.051-13.744,0.014-20.615c0.005-0.505,0.537-1.277,1.002-1.454c1.205-0.458,2.535-0.475,3.413,0.687
		c0.688,0.91,1.196,1.962,1.73,2.979c1.715,3.264,3.405,6.541,5.379,9.795c0-0.444,0-0.888,0-1.333
		c0-3.508-0.008-7.016,0.007-10.524c0.005-1.336,0.612-1.863,2.15-1.815c1.089,0.034,2.169,0.156,2.167,1.68
		c-0.008,6.824,0.028,13.648-0.055,20.471c-0.007,0.562-0.678,1.412-1.228,1.612c-1.175,0.427-2.445,0.241-3.193-0.937
		c-0.796-1.254-1.449-2.599-2.155-3.909c-1.567-2.912-3.127-5.828-4.69-8.742C116.859,20.906,116.75,20.915,116.64,20.923z"/>
	<path fill-rule="evenodd" clip-rule="evenodd" d="M150.75,22.622c-0.001-3.313,0.051-6.627-0.024-9.939
		c-0.032-1.39,0.635-1.999,1.853-2.002c2.54-0.008,5.102-0.082,7.616,0.203c3.771,0.426,5.88,2.928,5.936,6.725
		c0.047,3.312,0.03,6.626,0.005,9.939c-0.031,4.148-2.46,6.8-6.595,7.058c-2.297,0.143-4.608,0.07-6.912,0.05
		c-1.243-0.011-1.922-0.56-1.897-1.95C150.79,29.345,150.75,25.983,150.75,22.622z M155.128,14.545c0,5.464,0,10.833,0,16.272
		c1.236,0,2.337,0.03,3.435-0.006c1.896-0.062,3.1-1.104,3.151-3.019c0.094-3.445,0.083-6.896-0.002-10.342
		c-0.042-1.662-1.043-2.703-2.667-2.877C157.779,14.437,156.486,14.545,155.128,14.545z"/>
	<path fill-rule="evenodd" clip-rule="evenodd" d="M196.603,22.487c-0.001-3.265,0.048-6.531-0.024-9.794
		c-0.028-1.286,0.528-1.99,1.703-1.989c2.825,0.003,5.68-0.079,8.468,0.289c3.181,0.418,5.154,3.036,5.224,6.463
		c0.07,3.503,0.082,7.011-0.002,10.514c-0.094,3.896-2.692,6.453-6.718,6.648c-2.204,0.107-4.417,0.074-6.624,0.04
		c-1.63-0.025-2.02-0.464-2.023-2.088C196.598,29.209,196.604,25.848,196.603,22.487z M200.915,30.802
		c1.302,0,2.501,0.055,3.692-0.013c1.709-0.097,2.89-1.1,2.938-2.768c0.103-3.545,0.095-7.097,0.012-10.643
		c-0.036-1.54-0.974-2.561-2.469-2.741c-1.352-0.163-2.737-0.035-4.174-0.035C200.915,19.998,200.915,25.312,200.915,30.802z"/>
	<path fill-rule="evenodd" clip-rule="evenodd" d="M230.954,20.289c0,2.45,0.021,4.901-0.004,7.352
		c-0.044,4.131-2.156,6.631-6.24,7.075c-1.582,0.171-3.271,0.027-4.823-0.344c-2.789-0.667-4.406-2.697-4.495-5.492
		c-0.178-5.568-0.107-11.145-0.083-16.718c0.007-1.433,1.188-1.449,2.2-1.427c1.047,0.023,2.033,0.195,2.025,1.646
		c-0.025,4.565-0.008,9.13-0.006,13.695c0,0.48-0.016,0.963,0.026,1.44c0.212,2.418,1.447,3.609,3.657,3.55
		c2.177-0.058,3.386-1.349,3.403-3.787c0.034-4.709,0.01-9.418,0.012-14.127c0.001-1.928,0.43-2.421,2.118-2.441
		c1.766-0.021,2.207,0.479,2.209,2.515C230.956,15.58,230.954,17.934,230.954,20.289z"/>
	<path fill-rule="evenodd" clip-rule="evenodd" d="M100.875,29.45c-3.728,0-3.728,0-4.783,3.576
		c-0.459,1.557-1.117,1.923-2.647,1.473c-1.61-0.474-1.984-1.146-1.493-2.752c1.943-6.365,3.891-12.729,5.845-19.09
		c0.517-1.683,1.196-2.138,3.087-2.132c1.739,0.006,2.437,0.5,2.939,2.138c1.955,6.363,3.904,12.728,5.848,19.094
		c0.473,1.548,0.038,2.324-1.509,2.77c-1.486,0.429-2.203,0.019-2.657-1.519c-0.014-0.046-0.014-0.095-0.027-0.141
		C104.496,29.45,104.496,29.45,100.875,29.45z M98.058,25.993c1.885,0,3.611,0,5.486,0c-0.906-3.182-1.77-6.214-2.634-9.247
		c-0.084,0.01-0.169,0.02-0.254,0.029C99.803,19.801,98.951,22.826,98.058,25.993z"/>
	<path fill-rule="evenodd" clip-rule="evenodd" d="M270.881,29.452c-2.274,0-4.434-0.034-6.59,0.034
		c-0.336,0.011-0.825,0.417-0.953,0.752c-0.395,1.027-0.658,2.104-0.952,3.168c-0.391,1.414-1.423,1.387-2.521,1.101
		c-1.464-0.382-2.013-1.141-1.648-2.333c2.03-6.651,4.099-13.292,6.123-19.945c0.447-1.47,1.565-1.676,2.821-1.689
		c1.254-0.013,2.427,0.162,2.874,1.612c2.064,6.693,4.137,13.382,6.189,20.078c0.432,1.408-0.563,1.92-1.611,2.249
		c-1.069,0.335-2.142,0.393-2.565-1.006C271.659,32.188,271.298,30.896,270.881,29.452z M267.34,16.817
		c-0.095-0.023-0.188-0.046-0.283-0.069c-0.859,3.055-1.719,6.11-2.606,9.269c1.924,0,3.625,0,5.483,0
		C269.046,22.869,268.193,19.843,267.34,16.817z"/>
	<path fill-rule="evenodd" clip-rule="evenodd" d="M139.474,10.524c1.815,0,2.484,0.489,3.017,2.224
		c1.939,6.318,3.88,12.635,5.811,18.955c0.491,1.605,0.111,2.312-1.448,2.79c-1.559,0.478-2.225,0.093-2.718-1.572
		c-1.029-3.471-1.029-3.471-4.707-3.471c-3.661,0-3.661,0-4.68,3.513c-0.46,1.585-1.117,1.979-2.606,1.565
		c-1.593-0.444-2.039-1.194-1.569-2.73c1.944-6.366,3.894-12.729,5.851-19.091C136.95,11.001,137.639,10.524,139.474,10.524z
		 M142.175,25.953c-0.887-3.117-1.753-6.158-2.619-9.198c-0.086,0.006-0.172,0.013-0.259,0.02c-0.856,3.048-1.712,6.096-2.62,9.33
		c1.751,0,3.23,0.005,4.709-0.006C141.613,26.097,141.839,26.018,142.175,25.953z"/>
	<path fill-rule="evenodd" clip-rule="evenodd" d="M47.994,34.928c-1.283-0.026-3.458-0.429-5.227-1.91
		c-0.607-0.508-1.249-1.396-1.239-2.102c0.01-0.759,0.628-1.679,1.257-2.188c0.306-0.248,1.385,0.099,1.862,0.487
		c1.694,1.377,3.508,2.349,5.675,1.543c0.825-0.307,1.84-1.173,1.991-1.938c0.168-0.851-0.349-2.036-0.939-2.78
		c-0.555-0.699-1.578-1.045-2.426-1.487c-0.978-0.509-2.005-0.923-2.983-1.431c-3.146-1.633-4.397-3.999-3.889-7.286
		c0.405-2.613,2.312-4.382,5.598-5.017c2.442-0.472,4.91-0.437,7.175,0.689c0.63,0.313,1.305,1.241,1.337,1.916
		c0.082,1.707-1.273,2.445-2.841,1.674c-1.57-0.773-3.176-1.056-4.887-0.649c-1.053,0.25-1.879,0.769-2.059,1.935
		c-0.171,1.111,0.422,1.879,1.32,2.346c1.616,0.84,3.313,1.525,4.926,2.371c3.387,1.775,4.83,4.822,4.047,8.376
		C55.905,33.052,53.237,34.936,47.994,34.928z"/>
	<path fill-rule="evenodd" clip-rule="evenodd" d="M63.572,25.698c0,2.437,0.013,4.686-0.004,6.935
		c-0.012,1.536-0.525,2.005-2.114,2.005c-1.579,0-2.113-0.489-2.115-2.013c-0.008-6.676,0.019-13.353-0.025-20.029
		c-0.008-1.291,0.531-1.943,1.743-1.932c2.829,0.028,5.672-0.013,8.481,0.261c2.627,0.256,4.534,1.85,5.02,4.458
		c0.341,1.832,0.335,3.848-0.048,5.669c-0.609,2.888-3.171,4.534-6.511,4.638C66.611,25.734,65.22,25.698,63.572,25.698z
		 M63.578,14.519c0,1.486,0,2.862,0,4.238c0,3.981,0.196,4.145,4.179,3.491c2.016-0.331,2.88-1.531,2.855-3.963
		c-0.024-2.258-0.984-3.556-2.953-3.743C66.383,14.42,65.087,14.519,63.578,14.519z"/>
	<path fill-rule="evenodd" clip-rule="evenodd" d="M282.937,22.85c0,1.729-0.073,3.463,0.02,5.187
		c0.102,1.877,1.306,2.949,3.188,3.035c1.916,0.088,3.057-0.847,3.386-2.776c0.3-1.751,0.981-2.265,2.728-2.081
		c1.076,0.113,1.607,0.669,1.676,1.774c0.201,3.282-1.862,5.948-5.365,6.601c-1.342,0.25-2.78,0.283-4.135,0.109
		c-3.607-0.463-5.779-2.869-5.872-6.503c-0.092-3.602-0.099-7.21,0.002-10.812c0.104-3.716,2.273-5.997,6.002-6.57
		c2.251-0.346,4.425-0.088,6.415,1.04c2.053,1.163,3.059,2.957,2.959,5.361c-0.048,1.161-0.555,1.773-1.727,1.866
		c-1.587,0.125-2.356-0.314-2.609-1.548c-0.468-2.282-1.657-3.237-3.747-3.01c-1.723,0.188-2.775,1.124-2.883,2.854
		c-0.112,1.818-0.025,3.648-0.025,5.473C282.945,22.85,282.941,22.85,282.937,22.85z"/>
	<path fill-rule="evenodd" clip-rule="evenodd" d="M29.365,14.488c0,2.262,0,4.301,0,6.494c1.578,0,3.056,0.03,4.531-0.009
		c1.175-0.032,1.671,0.559,1.684,1.655c0.012,1.106-0.5,1.693-1.663,1.673c-1.479-0.026-2.957-0.006-4.544-0.006
		c0,2.244,0,4.327,0,6.527c2.799,0,5.531-0.004,8.262,0.001c1.735,0.004,2.2,0.404,2.227,1.882c0.026,1.504-0.501,1.966-2.287,1.969
		c-3.411,0.004-6.822,0.014-10.232-0.008c-2.015-0.013-2.325-0.351-2.325-2.365c-0.001-6.485-0.001-12.971,0.002-19.457
		c0.001-1.656,0.426-2.167,2.095-2.189c3.65-0.049,7.302-0.038,10.953-0.01c1.315,0.01,1.85,0.676,1.801,2.05
		c-0.043,1.2-0.546,1.836-1.866,1.81C35.174,14.449,32.344,14.488,29.365,14.488z"/>
	<path fill-rule="evenodd" clip-rule="evenodd" d="M174.128,14.489c0,2.251,0,4.29,0,6.493c1.576,0,3.052,0.03,4.526-0.01
		c1.169-0.031,1.688,0.557,1.7,1.647c0.012,1.089-0.491,1.705-1.662,1.684c-1.479-0.026-2.959-0.006-4.552-0.006
		c0,2.22,0,4.3,0,6.523c2.843,0,5.618-0.007,8.393,0.003c1.678,0.006,2.456,0.842,2.019,2.434c-0.154,0.563-0.958,1.333-1.485,1.349
		c-3.839,0.111-7.684,0.07-11.525,0.04c-1.204-0.009-1.782-0.607-1.774-1.906c0.039-6.725,0.044-13.45-0.004-20.175
		c-0.01-1.352,0.689-1.868,1.819-1.884c3.842-0.054,7.686-0.064,11.527-0.018c1.239,0.015,1.551,0.946,1.52,2.022
		c-0.031,1.103-0.421,1.828-1.704,1.814C180.047,14.467,177.169,14.489,174.128,14.489z"/>
	<path fill-rule="evenodd" clip-rule="evenodd" d="M294.939,60.725c-97.904,0-195.807,0-293.71,0c0-0.108,0-0.216,0-0.324
		c97.903,0,195.807,0,293.71,0C294.938,60.509,294.938,60.617,294.939,60.725z"/>
	<path fill-rule="evenodd" clip-rule="evenodd" d="M95.323,50.015c0-0.45-0.001-0.9,0-1.351c0.002-2.352,0.023-4.704-0.001-7.057
		c-0.01-1.017,0.535-1.368,1.435-1.357c0.867,0.01,1.659,0.121,1.656,1.292c-0.011,4.896,0.025,9.794-0.056,14.689
		c-0.008,0.478-0.761,1.375-1.058,1.332c-0.801-0.118-1.864-0.434-2.25-1.037c-1.338-2.097-2.433-4.349-3.62-6.542
		c-0.385-0.71-0.771-1.421-1.361-2.507c-0.069,0.794-0.131,1.182-0.133,1.57c-0.009,2.4-0.005,4.801-0.006,7.201
		c0,1.062-0.671,1.444-1.587,1.434c-0.901-0.01-1.583-0.361-1.581-1.442c0.008-4.849-0.021-9.698,0.049-14.546
		c0.006-0.462,0.627-1.31,0.935-1.297c0.825,0.033,1.905,0.197,2.391,0.746c0.835,0.944,1.307,2.214,1.913,3.356
		c0.984,1.854,1.952,3.717,2.927,5.576C95.093,50.056,95.208,50.036,95.323,50.015z"/>
	<path fill-rule="evenodd" clip-rule="evenodd" d="M76.296,49.93c0-2.677-0.01-5.354,0.004-8.032
		c0.007-1.358,0.564-1.896,1.864-1.569c0.478,0.12,1.15,0.812,1.158,1.253c0.083,4.9,0.079,9.803,0.007,14.703
		c-0.007,0.451-0.695,1.299-0.972,1.262c-0.811-0.108-1.877-0.355-2.296-0.94c-1.027-1.432-1.743-3.086-2.59-4.646
		c-0.746-1.374-1.501-2.743-2.576-4.049c0,2.659-0.027,5.318,0.014,7.977c0.016,1.029-0.314,1.723-1.389,1.788
		c-1.02,0.062-1.796-0.265-1.792-1.513c0.012-4.805-0.016-9.61,0.04-14.415c0.005-0.46,0.466-1.279,0.759-1.3
		c0.792-0.054,1.72,0.046,2.38,0.442c0.545,0.327,0.821,1.146,1.156,1.778c1.298,2.45,2.572,4.914,3.854,7.373
		C76.044,50.004,76.17,49.967,76.296,49.93z"/>
	<path fill-rule="evenodd" clip-rule="evenodd" d="M267.857,47.942c0,2.58-0.032,5.16,0.015,7.738
		c0.022,1.181-0.259,2.024-1.611,2.013c-1.35-0.013-1.596-0.863-1.584-2.04c0.041-4.468-0.017-8.938,0.057-13.405
		c0.01-0.64,0.376-1.601,0.858-1.835c0.943-0.458,2.024-0.223,2.618,0.825c0.897,1.587,1.732,3.208,2.587,4.818
		c0.71,1.338,1.41,2.68,2.461,3.946c0-2.719,0.03-5.438-0.016-8.154c-0.019-1.108,0.431-1.594,1.518-1.595
		c1.139,0,1.608,0.486,1.597,1.672c-0.047,4.564-0.022,9.13-0.014,13.694c0.002,0.882,0.102,1.791-1.087,2.017
		c-1.084,0.205-1.876-0.208-2.392-1.164c-1.324-2.448-2.641-4.9-3.963-7.35c-0.227-0.419-0.469-0.83-0.704-1.244
		C268.083,47.9,267.97,47.921,267.857,47.942z"/>
	<path fill-rule="evenodd" clip-rule="evenodd" d="M225.618,48.135c2.867,1.542,2.69,4.384,2.128,6.586
		c-0.518,2.021-2.113,2.964-4.695,2.986c-1.535,0.014-3.071,0.008-4.607-0.003c-1.104-0.009-1.639-0.505-1.63-1.686
		c0.034-4.703,0.029-9.406,0-14.109c-0.008-1.156,0.457-1.683,1.617-1.663c1.632,0.027,3.264-0.017,4.896,0.015
		c1.733,0.032,3.301,0.515,3.939,2.312c0.663,1.866,0.553,3.688-0.958,5.195C226.175,47.9,225.965,47.954,225.618,48.135z
		 M220.051,54.771c2.645,0.434,4.183,0.239,4.447-0.87c0.277-1.166,0.417-2.763-0.171-3.646c-0.954-1.432-2.742-0.737-4.276-0.729
		C220.051,51.368,220.051,53.037,220.051,54.771z M220.106,42.982c0,1.46,0,2.673,0,4.037c1.462-0.303,3.099,0.629,4.047-0.909
		c0.345-0.561,0.333-1.706-0.021-2.263C223.167,42.336,221.548,43.238,220.106,42.982z"/>
	<path fill-rule="evenodd" clip-rule="evenodd" d="M248.428,30.821c2.532,0,4.928,0.061,7.318-0.023
		c1.402-0.049,1.922,0.651,1.996,1.87c0.083,1.354-0.561,1.996-1.997,2.002c-3.122,0.014-6.246,0.021-9.368-0.007
		c-1.844-0.017-2.192-0.394-2.193-2.204c-0.003-6.582-0.003-13.164,0.003-19.746c0.001-1.528,0.499-1.99,2.104-2
		s2.128,0.457,2.131,1.978c0.01,5.429,0.006,10.858,0.007,16.287C248.428,29.546,248.428,30.116,248.428,30.821z"/>
	<path fill-rule="evenodd" clip-rule="evenodd" d="M5.036,30.823c2.635,0,4.986-0.008,7.337,0.003
		c1.392,0.007,1.968,0.558,1.993,1.855c0.026,1.357-0.587,1.983-2.029,1.99c-3.122,0.014-6.244,0.021-9.366-0.008
		c-1.808-0.018-2.175-0.42-2.176-2.224c-0.003-6.58-0.004-13.16,0.001-19.74c0.001-1.528,0.523-2.007,2.108-1.987
		c1.638,0.021,2.124,0.457,2.126,1.979c0.009,5.427,0.005,10.855,0.006,16.282C5.037,29.54,5.036,30.106,5.036,30.823z"/>
	<path fill-rule="evenodd" clip-rule="evenodd" d="M82.034,30.821c2.544,0,4.942,0.059,7.335-0.022
		c1.41-0.048,1.91,0.674,1.982,1.886c0.08,1.333-0.581,1.978-2.017,1.985c-3.075,0.015-6.15,0.022-9.225-0.001
		c-1.992-0.015-2.316-0.366-2.318-2.379c-0.004-6.486-0.003-12.973,0-19.459c0.001-1.645,0.489-2.122,2.133-2.123
		c1.625,0,2.098,0.475,2.101,2.157c0.007,5.429,0.007,10.858,0.009,16.288C82.035,29.673,82.034,30.193,82.034,30.821z"/>
	<path fill-rule="evenodd" clip-rule="evenodd" d="M0.83,48.87c0-2.305,0.035-4.609-0.015-6.912
		c-0.024-1.148,0.422-1.722,1.58-1.708c1.727,0.02,3.46-0.045,5.181,0.078c2.438,0.175,4.108,1.642,4.291,4.058
		c0.215,2.861,0.277,5.758,0.098,8.62c-0.189,3.037-2,4.547-5.15,4.69c-1.437,0.064-2.88,0.013-4.32,0.012
		c-1.189,0-1.713-0.544-1.681-1.781C0.874,53.576,0.831,51.222,0.83,48.87z M4.081,43.104c0,3.938,0,7.797,0,11.849
		c0.652,0,1.214,0.002,1.776-0.001c2.307-0.014,3.033-0.722,3.045-2.987c0.009-1.582,0.002-3.165,0.002-4.748
		C8.904,43.185,8.374,42.714,4.081,43.104z"/>
	<path fill-rule="evenodd" clip-rule="evenodd" d="M60.043,49.04c0,1.295,0.05,2.592-0.011,3.884
		c-0.119,2.521-1.394,4.102-3.693,4.693c-3.254,0.837-6.228-0.37-7.148-2.909c-0.113-0.312-0.245-0.643-0.248-0.966
		c-0.03-3.062-0.232-6.14,0.011-9.182c0.25-3.134,2.443-4.503,6.136-4.292c3.037,0.174,4.805,1.897,4.942,4.889
		C60.092,46.449,60.043,47.746,60.043,49.04z M51.946,49.072c0,1.198-0.032,2.397,0.008,3.594c0.05,1.465,0.811,2.269,2.161,2.372
		c1.579,0.122,2.69-0.545,2.763-2.038c0.129-2.673,0.124-5.363-0.038-8.034c-0.088-1.458-1.129-2.055-2.671-1.958
		c-1.367,0.085-2.152,0.872-2.21,2.327C51.909,46.579,51.948,47.826,51.946,49.072z"/>
	<path fill-rule="evenodd" clip-rule="evenodd" d="M247.166,56.54c-0.418,0.302-0.905,0.896-1.478,0.993
		c-0.494,0.085-1.334-0.247-1.58-0.658c-0.523-0.875-0.555-2.576-1.157-2.767c-1.403-0.441-3.026-0.229-4.557-0.186
		c-0.299,0.009-0.704,0.403-0.851,0.718c-0.261,0.557-0.372,1.186-0.524,1.79c-0.253,1.003-0.794,1.504-1.879,1.157
		c-1.01-0.322-1.524-0.815-1.144-2.017c1.48-4.661,2.901-9.34,4.312-14.022c0.342-1.131,1.154-1.482,2.184-1.476
		c0.974,0.007,1.771,0.352,2.094,1.409c1.438,4.721,2.891,9.437,4.337,14.155C246.98,55.82,247.024,56.007,247.166,56.54z
		 M240.591,44.724c-0.104,0.009-0.208,0.018-0.312,0.027c-0.605,2.14-1.211,4.28-1.841,6.504c1.412,0,2.659,0,4.027,0
		C241.813,48.984,241.203,46.854,240.591,44.724z"/>
	<path fill-rule="evenodd" clip-rule="evenodd" d="M109.034,43.002c0,1.663,0,3.095,0,4.746c1.012,0,1.958,0.029,2.902-0.008
		c0.884-0.035,1.584,0.195,1.6,1.191c0.017,1.081-0.723,1.325-1.664,1.288c-0.902-0.036-1.805-0.008-2.808-0.008
		c0,1.593,0,3.056,0,4.74c1.936,0,3.843,0.021,5.749-0.008c1.016-0.016,1.849,0.095,1.82,1.412c-0.029,1.318-0.899,1.37-1.891,1.36
		c-2.354-0.023-4.709-0.026-7.063-0.001c-1.292,0.015-1.92-0.442-1.901-1.862c0.061-4.613,0.058-9.227,0.001-13.84
		c-0.017-1.352,0.574-1.799,1.809-1.787c2.499,0.025,4.998,0.04,7.496,0.01c0.991-0.012,1.573,0.288,1.548,1.377
		c-0.025,1.057-0.605,1.408-1.586,1.396C113.084,42.985,111.125,43.002,109.034,43.002z"/>
	<path fill-rule="evenodd" clip-rule="evenodd" d="M164.05,43.002c0,1.386,0.025,2.578-0.009,3.769
		c-0.021,0.768,0.331,1.014,1.046,0.98c0.719-0.034,1.44,0.005,2.16-0.01c0.891-0.019,1.492,0.448,1.307,1.277
		c-0.104,0.469-0.782,1.045-1.282,1.139c-0.968,0.18-1.993,0.053-3.209,0.053c0,1.427-0.053,2.752,0.048,4.065
		c0.02,0.249,0.643,0.63,1,0.646c1.678,0.069,3.36,0.047,5.041,0.026c0.96-0.011,1.576,0.263,1.554,1.379
		c-0.022,1.07-0.574,1.403-1.562,1.393c-2.496-0.028-4.994-0.02-7.491-0.007c-1.241,0.007-1.809-0.494-1.794-1.821
		c0.053-4.609,0.051-9.22,0.001-13.829c-0.014-1.296,0.456-1.842,1.757-1.821c2.496,0.04,4.994,0.024,7.491-0.001
		c0.944-0.01,1.604,0.207,1.605,1.326c0.001,1.16-0.654,1.46-1.677,1.445C168.122,42.983,166.207,43.002,164.05,43.002z"/>
	<path fill-rule="evenodd" clip-rule="evenodd" d="M289.629,40.044c0.59,0.128,1.735,0.292,2.821,0.639
		c0.911,0.29,1.457,0.949,1.034,2.007c-0.441,1.105-1.161,0.882-2.113,0.632c-1.158-0.306-2.424-0.393-3.617-0.285
		c-0.469,0.042-1.154,0.827-1.219,1.34c-0.064,0.515,0.384,1.332,0.853,1.626c1.252,0.785,2.651,1.33,3.964,2.026
		c1.768,0.938,2.608,2.485,2.736,4.442c0.178,2.729-1.519,4.831-4.238,5.282c-2.063,0.343-4.041,0.117-5.772-1.117
		c-0.507-0.361-1.024-0.995-1.112-1.569c-0.073-0.479,0.366-1.189,0.792-1.533c0.255-0.207,1.044-0.066,1.378,0.194
		c1.1,0.86,2.264,1.634,3.668,1.246c0.771-0.213,1.794-0.845,1.973-1.49c0.181-0.651-0.328-1.837-0.917-2.285
		c-1.165-0.885-2.604-1.402-3.911-2.107c-1.429-0.772-2.394-1.892-2.561-3.584C283.06,42.204,285.252,40.094,289.629,40.044z"/>
	<path fill-rule="evenodd" clip-rule="evenodd" d="M184.617,40.071c0.523,0.117,1.572,0.272,2.568,0.595
		c0.921,0.298,1.463,0.966,1.058,2.005c-0.418,1.07-1.127,0.968-2.105,0.656c-1.055-0.337-2.246-0.501-3.335-0.375
		c-0.581,0.067-1.422,0.853-1.506,1.409c-0.081,0.543,0.514,1.428,1.058,1.775c1.285,0.821,2.761,1.339,4.08,2.113
		c1.846,1.084,2.52,2.853,2.365,4.908c-0.198,2.658-1.77,4.245-4.469,4.626c-2.175,0.307-4.215-0.018-5.949-1.477
		c-0.873-0.735-1.008-1.615-0.263-2.522c0.757-0.921,1.372-0.229,2.107,0.146c0.949,0.483,1.986,0.913,3.029,1.064
		s2.041-0.309,2.355-1.462c0.306-1.119-0.218-1.996-1.185-2.536c-1.128-0.631-2.326-1.138-3.467-1.748
		c-1.5-0.804-2.646-1.896-2.828-3.725C177.791,42.126,180.173,39.933,184.617,40.071z"/>
	<path fill-rule="evenodd" clip-rule="evenodd" d="M36.178,53.093c1.079-3.817,2.202-7.624,3.211-11.46
		c0.318-1.207,0.903-1.621,2.051-1.277c1.085,0.325,1.339,0.99,0.99,2.093c-1.446,4.564-2.854,9.143-4.213,13.734
		c-0.35,1.184-1.071,1.604-2.208,1.615c-1.16,0.011-1.876-0.486-2.221-1.625c-1.399-4.633-2.811-9.263-4.266-13.879
		c-0.351-1.112,0.113-1.659,1.068-1.94c0.955-0.281,1.652-0.067,1.956,1.049c0.942,3.467,1.942,6.917,2.923,10.373
		c0.128,0.452,0.279,0.898,0.42,1.348C35.985,53.113,36.082,53.103,36.178,53.093z"/>
	<path fill-rule="evenodd" clip-rule="evenodd" d="M147.894,54.958c1.746,0,3.319,0.027,4.892-0.01
		c1.03-0.023,1.866,0.129,1.834,1.415c-0.03,1.158-0.763,1.378-1.765,1.358c-2.113-0.041-4.229-0.022-6.343-0.009
		c-1.237,0.009-1.818-0.479-1.803-1.813c0.052-4.661,0.045-9.323,0.004-13.983c-0.011-1.19,0.493-1.658,1.618-1.666
		c1.175-0.008,1.586,0.569,1.576,1.71c-0.037,3.748-0.013,7.496-0.013,11.244C147.894,53.72,147.894,54.237,147.894,54.958z"/>
	<path fill-rule="evenodd" clip-rule="evenodd" d="M154.01,70.723c-0.451,0.789-0.882,1.592-1.358,2.365
		c-0.569,0.924-1.192,0.902-1.74-0.015c-0.486-0.814-0.916-1.662-1.699-2.461c0,1.876,0.03,3.753-0.023,5.627
		c-0.012,0.412-0.212,0.977-0.52,1.189c-0.707,0.487-1.524-0.027-1.537-0.989c-0.04-3.075-0.042-6.151,0.022-9.226
		c0.008-0.416,0.486-1.174,0.726-1.165c0.589,0.021,1.388,0.232,1.701,0.661c0.812,1.108,1.407,2.376,2.199,3.775
		c0.716-1.267,1.34-2.371,1.964-3.475c0.438-0.775,1.091-1.42,1.955-0.979c0.414,0.211,0.681,1.072,0.694,1.646
		c0.068,2.833,0.021,5.67,0.034,8.505c0.004,0.743-0.093,1.391-1.02,1.394c-0.895,0.003-1.092-0.597-1.086-1.363
		c0.014-1.812,0.005-3.625,0.005-5.437C154.222,70.759,154.116,70.741,154.01,70.723z"/>
	<path fill-rule="evenodd" clip-rule="evenodd" d="M192.601,72.225c0-1.621,0.019-3.242-0.008-4.863
		c-0.014-0.813,0.103-1.449,1.125-1.431c0.961,0.017,1.021,0.644,1.017,1.381c-0.014,2.931,0.023,5.862-0.035,8.793
		c-0.01,0.471-0.445,1.339-0.63,1.325c-0.576-0.045-1.367-0.271-1.644-0.703c-0.955-1.49-1.727-3.1-2.572-4.661
		c-0.157-0.29-0.334-0.568-0.844-0.829c0,1.676,0.046,3.354-0.03,5.027c-0.02,0.429-0.327,1.084-0.663,1.213
		c-0.846,0.322-1.394-0.126-1.397-1.061c-0.011-3.123-0.025-6.246,0.03-9.368c0.006-0.367,0.517-1.063,0.664-1.03
		c0.633,0.143,1.475,0.338,1.771,0.81c0.996,1.578,1.79,3.283,2.664,4.938c0.088,0.168,0.194,0.326,0.292,0.488
		C192.428,72.245,192.514,72.235,192.601,72.225z"/>
	<path fill-rule="evenodd" clip-rule="evenodd" d="M97.703,72.556c0.66,1.226,1.317,2.246,1.751,3.353
		c0.16,0.409-0.203,1.023-0.327,1.544c-0.502-0.189-1.223-0.234-1.464-0.598c-0.713-1.071-1.192-2.296-1.86-3.401
		c-0.2-0.332-0.719-0.472-1.092-0.699c-0.192,0.375-0.514,0.736-0.551,1.126c-0.085,0.904,0.06,1.837-0.083,2.727
		c-0.059,0.369-0.626,0.921-0.948,0.912c-0.366-0.012-1.02-0.55-1.028-0.871c-0.078-3.263-0.078-6.529-0.006-9.792
		c0.007-0.319,0.611-0.857,0.977-0.893c1.141-0.109,2.301-0.055,3.452-0.011c1.404,0.054,2.53,0.595,3.001,2.024
		c0.525,1.593,0.051,3.122-1.219,4.114C98.123,72.234,97.939,72.374,97.703,72.556z M94.138,67.764c0,0.598,0.002,1.063,0,1.53
		c-0.012,1.83,0.44,2.165,2.213,1.741c0.997-0.238,1.311-0.924,1.249-1.808c-0.059-0.85-0.507-1.442-1.454-1.461
		C95.536,67.754,94.926,67.764,94.138,67.764z"/>
	<path fill-rule="evenodd" clip-rule="evenodd" d="M256.897,49.028c0,2.302-0.033,4.604,0.014,6.906
		c0.022,1.135-0.438,1.752-1.566,1.754c-1.091,0.002-1.631-0.526-1.622-1.7c0.036-4.699,0.038-9.399-0.002-14.1
		c-0.01-1.2,0.519-1.638,1.638-1.632c1.073,0.006,1.568,0.476,1.553,1.578c-0.032,2.397-0.01,4.795-0.01,7.193
		C256.9,49.028,256.898,49.028,256.897,49.028z"/>
	<path fill-rule="evenodd" clip-rule="evenodd" d="M22.736,48.887c0.001,2.349-0.03,4.698,0.015,7.047
		c0.021,1.14-0.463,1.752-1.576,1.754c-1.082,0.002-1.625-0.534-1.616-1.707c0.037-4.698,0.037-9.396,0.001-14.095
		c-0.009-1.198,0.544-1.634,1.65-1.635c1.079-0.001,1.553,0.491,1.536,1.588C22.71,44.188,22.735,46.538,22.736,48.887z"/>
	<path fill-rule="evenodd" clip-rule="evenodd" d="M21.166,72.493c0,1.307,0.087,2.597-0.047,3.863
		c-0.047,0.442-0.642,0.826-0.986,1.237c-0.352-0.42-0.996-0.831-1.008-1.261c-0.088-3.065-0.087-6.136-0.001-9.202
		c0.012-0.41,0.597-1.042,1.024-1.152c0.775-0.201,1.051,0.392,1.033,1.14c-0.027,1.138-0.007,2.277-0.007,3.491
		c1.273,0,2.349,0,3.593,0c0-1.221,0.018-2.358-0.006-3.496c-0.016-0.757,0.264-1.188,1.069-1.187
		c0.802,0.001,1.073,0.425,1.069,1.186c-0.017,3.068,0.035,6.138-0.047,9.204c-0.012,0.431-0.568,1.125-0.974,1.21
		c-0.813,0.17-1.139-0.442-1.118-1.257c0.033-1.233,0.009-2.469,0.009-3.776C23.541,72.493,22.459,72.493,21.166,72.493z"/>
	<path fill-rule="evenodd" clip-rule="evenodd" d="M167.801,70.535c-0.002-0.912-0.028-1.825,0.006-2.735
		c0.03-0.801-0.327-1.885,1.093-1.863c1.315,0.02,1.01,1.03,1.02,1.792c0.024,1.968,0.012,3.936,0.008,5.904
		c-0.002,1.168,0.253,2.128,1.69,2.171c1.257,0.038,1.838-0.614,1.854-2.173c0.022-2.111,0.013-4.224,0.002-6.336
		c-0.004-0.729,0.046-1.363,1.022-1.367c0.942-0.004,1.085,0.581,1.082,1.333c-0.01,2.256,0.049,4.514-0.024,6.768
		c-0.079,2.436-1.409,3.618-3.888,3.617c-2.478-0.001-3.766-1.202-3.855-3.654C167.768,72.84,167.803,71.687,167.801,70.535z"/>
	<path fill-rule="evenodd" clip-rule="evenodd" d="M273.622,65.326c0.66,0.73,1.305,1.14,1.492,1.701
		c0.984,2.951,1.838,5.945,2.775,8.912c0.244,0.772,0.176,1.305-0.673,1.567c-0.946,0.294-1.241-0.32-1.323-1.035
		c-0.213-1.838-1.582-1.308-2.697-1.438c-1.19-0.141-1.619,0.425-1.796,1.474c-0.12,0.715-0.425,1.303-1.361,0.99
		c-0.867-0.29-0.864-0.878-0.637-1.606c0.93-2.97,1.807-5.956,2.792-8.906C272.371,66.454,272.968,66.063,273.622,65.326z
		 M273.775,69.124c-0.103,0.004-0.205,0.008-0.308,0.012c-0.371,1.365-0.742,2.73-1.13,4.159c0.966,0,1.694,0,2.624,0
		C274.535,71.794,274.155,70.458,273.775,69.124z"/>
	<path fill-rule="evenodd" clip-rule="evenodd" d="M64.42,76.763c-0.286,0.226-0.627,0.707-0.968,0.706
		c-0.394-0.001-1.098-0.393-1.128-0.674c-0.187-1.718-1.254-1.785-2.632-1.782c-1.143,0.002-1.805,0.237-1.975,1.454
		c-0.096,0.687-0.361,1.346-1.321,1.055c-0.959-0.29-0.905-0.912-0.655-1.699c0.914-2.872,1.816-5.75,2.662-8.643
		c0.25-0.855,0.674-1.363,1.575-1.359c0.914,0.004,1.301,0.55,1.546,1.395c0.813,2.803,1.702,5.584,2.56,8.374
		C64.182,75.91,64.268,76.233,64.42,76.763z M58.619,73.302c0.988,0,1.716,0,2.646,0c-0.419-1.487-0.794-2.818-1.169-4.149
		c-0.097,0.001-0.194,0.001-0.291,0.001C59.425,70.483,59.045,71.812,58.619,73.302z"/>
	<path fill-rule="evenodd" clip-rule="evenodd" d="M254.175,73.415c0,0.957,0.105,1.968-0.047,2.938
		c-0.071,0.454-0.643,0.829-0.986,1.239c-0.352-0.419-0.997-0.83-1.009-1.259c-0.088-3.067-0.039-6.138-0.053-9.207
		c-0.003-0.82,0.293-1.253,1.178-1.219c1.197,0.046,2.402-0.033,3.594,0.066c1.802,0.15,2.793,1.329,2.923,3.309
		c0.123,1.894-0.774,3.378-2.406,3.754C256.4,73.26,255.384,73.28,254.175,73.415z M254.266,71.936
		c1.247-0.459,2.406-0.595,3.073-1.24c0.388-0.376,0.301-1.935-0.133-2.306c-0.672-0.574-1.822-0.588-2.94-0.884
		C254.266,69.068,254.266,70.201,254.266,71.936z"/>
	<path fill-rule="evenodd" clip-rule="evenodd" d="M112.961,67.718c0,1.195,0,2.136,0,3.127c0.408,0.022,0.741,0.015,1.064,0.064
		c0.72,0.112,1.889-0.419,1.881,0.881c-0.007,1.171-1.105,0.737-1.797,0.834c-0.328,0.046-0.66,0.057-1.109,0.093
		c0,0.966,0,1.893,0,3.054c1.285,0,2.565-0.071,3.828,0.041c0.416,0.036,0.789,0.55,1.182,0.845
		c-0.373,0.316-0.729,0.88-1.122,0.906c-1.577,0.105-3.165,0.031-4.749,0.05c-0.976,0.011-1.372-0.441-1.364-1.408
		c0.024-2.975,0.028-5.951-0.005-8.926c-0.012-0.992,0.404-1.39,1.369-1.373c1.535,0.026,3.071,0.01,4.607,0.011
		c0.651,0.001,1.413,0.02,1.209,0.923c-0.082,0.361-0.732,0.8-1.156,0.839C115.57,67.792,114.325,67.718,112.961,67.718z"/>
	<path fill-rule="evenodd" clip-rule="evenodd" d="M40.29,67.725c0,1.16,0,2.098,0,3.101c0.453,0.03,0.826,0.048,1.198,0.083
		c0.706,0.066,1.774-0.307,1.744,0.887c-0.031,1.184-1.115,0.723-1.803,0.826c-0.327,0.049-0.661,0.059-1.106,0.096
		c0,0.965,0,1.893,0,3.053c1.311,0,2.593-0.073,3.857,0.042c0.408,0.037,0.771,0.57,1.154,0.876
		c-0.386,0.307-0.757,0.852-1.161,0.878c-1.578,0.103-3.167,0.031-4.751,0.044c-0.896,0.008-1.321-0.396-1.317-1.305
		c0.013-3.025,0.021-6.051,0-9.076c-0.006-0.899,0.333-1.331,1.266-1.315c1.632,0.027,3.268-0.043,4.896,0.047
		c0.371,0.02,0.715,0.525,1.071,0.808c-0.38,0.319-0.737,0.873-1.145,0.913C42.961,67.803,41.71,67.725,40.29,67.725z"/>
	<path fill-rule="evenodd" clip-rule="evenodd" d="M219.612,71.791c0.108-1.191,0.093-2.411,0.355-3.566
		c0.37-1.632,1.646-2.347,3.673-2.299c1.874,0.044,3.264,0.913,3.484,2.393c0.076,0.511-0.232,1.381-0.63,1.594
		c-0.646,0.346-1.251-0.019-1.402-0.905c-0.163-0.964-0.836-1.354-1.788-1.254c-0.996,0.104-1.424,0.761-1.446,1.671
		c-0.04,1.585-0.039,3.173-0.004,4.758c0.021,0.935,0.502,1.535,1.491,1.614c0.955,0.076,1.628-0.305,1.746-1.293
		c0.11-0.931,0.761-1.236,1.387-0.913c0.398,0.206,0.727,1.081,0.644,1.583c-0.256,1.557-1.667,2.444-3.587,2.472
		c-1.963,0.028-3.185-0.776-3.638-2.403c-0.064-0.23-0.137-0.469-0.142-0.704c-0.017-0.912-0.007-1.825-0.007-2.737
		C219.703,71.796,219.658,71.793,219.612,71.791z"/>
	<path fill-rule="evenodd" clip-rule="evenodd" d="M201.206,51.363c-1.345,0-2.688-0.003-4.033,0
		c-1.201,0.003-1.587-0.774-1.603-1.784c-0.017-1.049,0.3-1.945,1.586-1.953c2.833-0.018,5.666-0.027,8.499,0.004
		c1.227,0.013,1.685,0.879,1.654,1.933c-0.029,1.062-0.539,1.825-1.782,1.807C204.086,51.348,202.646,51.364,201.206,51.363z"/>
	<path fill-rule="evenodd" clip-rule="evenodd" d="M129.008,51.366c-1.344,0-2.689-0.028-4.032,0.009
		c-1.336,0.037-1.803-0.721-1.792-1.892c0.01-1.085,0.423-1.866,1.688-1.862c2.784,0.007,5.569-0.01,8.354,0.009
		c1.226,0.008,1.712,0.829,1.701,1.892c-0.011,1.062-0.497,1.852-1.741,1.846C131.793,51.361,130.401,51.366,129.008,51.366z"/>
	<path fill-rule="evenodd" clip-rule="evenodd" d="M3.424,67.722c-0.726,0-1.322,0.113-1.843-0.036
		c-0.401-0.115-0.707-0.562-1.055-0.86c0.332-0.302,0.654-0.852,0.998-0.865c2.011-0.082,4.028-0.074,6.039,0.001
		c0.31,0.012,0.834,0.525,0.837,0.812c0.003,0.308-0.44,0.795-0.779,0.893c-0.578,0.168-1.227,0.094-2.066,0.132
		c0,1.701,0,3.359,0,5.017c0,1.056-0.021,2.111,0.006,3.166c0.021,0.826-0.009,1.613-1.11,1.593
		c-1.013-0.018-1.037-0.766-1.031-1.536c0.016-2.254,0.004-4.508,0.003-6.763C3.424,68.808,3.424,68.342,3.424,67.722z"/>
	<path fill-rule="evenodd" clip-rule="evenodd" d="M76.385,67.797c-0.624-0.03-1.129,0.05-1.549-0.104
		c-0.49-0.18-1.202-0.492-1.293-0.873c-0.215-0.894,0.572-0.903,1.218-0.903c1.774,0,3.547-0.008,5.321,0.005
		c0.603,0.004,1.321-0.133,1.334,0.843c0.014,1.036-0.733,0.94-1.403,0.957c-0.425,0.011-0.852,0.002-1.499,0.002
		c0,1.867,0,3.621,0,5.375c0,0.958-0.018,1.917,0.005,2.875c0.02,0.815,0.017,1.632-1.096,1.601
		c-1.114-0.031-1.043-0.886-1.04-1.675c0.009-2.205,0.003-4.41,0.003-6.615C76.385,68.816,76.385,68.348,76.385,67.797z"/>
	<path fill-rule="evenodd" clip-rule="evenodd" d="M290.808,75.774c1.298,0,2.358-0.087,3.391,0.044
		c0.404,0.051,0.746,0.592,1.116,0.91c-0.356,0.292-0.697,0.812-1.072,0.838c-1.431,0.099-2.872,0.039-4.31,0.038
		c-0.824-0.001-1.229-0.409-1.228-1.239c0.008-3.114-0.027-6.229,0.056-9.341c0.01-0.374,0.585-0.953,0.99-1.051
		c0.771-0.185,1.067,0.374,1.062,1.127c-0.016,2.3-0.005,4.6-0.005,6.898C290.809,74.516,290.808,75.034,290.808,75.774z"/>
	<path fill-rule="evenodd" clip-rule="evenodd" d="M240.332,71.803c0,1.536,0.065,3.076-0.043,4.604
		c-0.029,0.41-0.589,0.781-0.905,1.171c-0.38-0.388-1.077-0.766-1.088-1.164c-0.092-3.117-0.046-6.238-0.056-9.358
		c-0.003-0.785,0.392-1.272,1.123-1.082c0.392,0.103,0.904,0.686,0.932,1.08c0.106,1.577,0.044,3.165,0.044,4.749
		C240.335,71.803,240.333,71.803,240.332,71.803z"/>
	<path fill-rule="evenodd" clip-rule="evenodd" d="M208.325,71.813c0,1.535,0.066,3.075-0.044,4.602
		c-0.029,0.407-0.598,0.774-0.918,1.16c-0.375-0.388-1.062-0.768-1.074-1.166c-0.09-3.115-0.048-6.234-0.054-9.353
		c-0.002-0.774,0.38-1.277,1.123-1.069c0.394,0.109,0.901,0.686,0.928,1.081c0.106,1.575,0.044,3.162,0.044,4.745
		C208.329,71.813,208.327,71.813,208.325,71.813z"/>
	<path fill-rule="evenodd" clip-rule="evenodd" d="M61.704,64.454c-0.24-0.089-0.398-0.108-0.502-0.193
		c-0.869-0.712-1.702-0.6-2.587,0.002c-0.187,0.127-0.572-0.037-0.866-0.067c0.083-0.293,0.077-0.668,0.262-0.866
		c1.029-1.102,2.915-1.106,3.875-0.021c0.162,0.184,0.245,0.508,0.227,0.756C62.1,64.214,61.824,64.346,61.704,64.454z"/>
	<path fill-rule="evenodd" clip-rule="evenodd" d="M41.138,64.822c-0.28-0.39-0.455-0.632-0.628-0.874
		c0.823-0.543,1.638-1.1,2.49-1.591c0.048-0.028,0.406,0.48,0.62,0.739C42.83,63.645,42.042,64.193,41.138,64.822z"/>
	<path fill-rule="evenodd" clip-rule="evenodd" fill="#FFFFFF" d="M155.128,14.545c1.357,0,2.65-0.109,3.917,0.027
		c1.624,0.174,2.625,1.215,2.667,2.877c0.085,3.446,0.096,6.897,0.002,10.342c-0.052,1.915-1.255,2.957-3.151,3.019
		c-1.098,0.036-2.198,0.006-3.435,0.006C155.128,25.378,155.128,20.009,155.128,14.545z"/>
	<path fill-rule="evenodd" clip-rule="evenodd" fill="#FFFFFF" d="M200.915,30.802c0-5.49,0-10.804,0-16.199
		c1.437,0,2.822-0.128,4.174,0.035c1.495,0.18,2.433,1.201,2.469,2.741c0.083,3.546,0.091,7.098-0.012,10.643
		c-0.049,1.668-1.229,2.671-2.938,2.768C203.416,30.856,202.216,30.802,200.915,30.802z"/>
	<path fill-rule="evenodd" clip-rule="evenodd" fill="#FFFFFF" d="M98.058,25.993c0.893-3.167,1.745-6.192,2.598-9.217
		c0.084-0.01,0.169-0.02,0.254-0.029c0.864,3.032,1.728,6.065,2.634,9.247C101.669,25.993,99.943,25.993,98.058,25.993z"/>
	<path fill-rule="evenodd" clip-rule="evenodd" fill="#FFFFFF" d="M267.34,16.817c0.853,3.026,1.706,6.051,2.594,9.2
		c-1.858,0-3.56,0-5.483,0c0.888-3.159,1.747-6.214,2.606-9.269C267.152,16.771,267.246,16.794,267.34,16.817z"/>
	<path fill-rule="evenodd" clip-rule="evenodd" fill="#FFFFFF" d="M142.175,25.953c-0.336,0.064-0.562,0.144-0.788,0.146
		c-1.479,0.011-2.958,0.006-4.709,0.006c0.908-3.233,1.764-6.282,2.62-9.33c0.086-0.007,0.172-0.013,0.259-0.02
		C140.422,19.795,141.288,22.836,142.175,25.953z"/>
	<path fill-rule="evenodd" clip-rule="evenodd" fill="#FFFFFF" d="M63.578,14.519c1.509,0,2.805-0.099,4.081,0.023
		c1.969,0.188,2.929,1.485,2.953,3.743c0.025,2.432-0.839,3.632-2.855,3.963c-3.983,0.654-4.179,0.49-4.179-3.491
		C63.578,17.38,63.578,16.004,63.578,14.519z"/>
	<path fill-rule="evenodd" clip-rule="evenodd" fill="#FFFFFF" d="M220.051,54.771c0-1.734,0-3.403,0-5.245
		c1.534-0.009,3.322-0.703,4.276,0.729c0.588,0.884,0.448,2.48,0.171,3.646C224.234,55.01,222.696,55.205,220.051,54.771z"/>
	<path fill-rule="evenodd" clip-rule="evenodd" fill="#FFFFFF" d="M220.106,42.982c1.442,0.256,3.061-0.646,4.025,0.865
		c0.354,0.557,0.366,1.702,0.021,2.263c-0.948,1.538-2.585,0.606-4.047,0.909C220.106,45.655,220.106,44.442,220.106,42.982z"/>
	<path fill-rule="evenodd" clip-rule="evenodd" fill="#FFFFFF" d="M4.081,43.104c4.293-0.39,4.823,0.081,4.823,4.112
		c0,1.583,0.006,3.166-0.002,4.748c-0.012,2.266-0.738,2.974-3.045,2.987c-0.562,0.003-1.124,0.001-1.776,0.001
		C4.081,50.901,4.081,47.042,4.081,43.104z"/>
	<path fill-rule="evenodd" clip-rule="evenodd" fill="#FFFFFF" d="M51.947,49.072c0.001-1.246-0.038-2.493,0.012-3.737
		c0.058-1.455,0.843-2.242,2.21-2.327c1.542-0.097,2.583,0.5,2.671,1.958c0.162,2.671,0.167,5.361,0.038,8.034
		c-0.073,1.493-1.184,2.16-2.763,2.038c-1.35-0.104-2.111-0.907-2.161-2.372C51.914,51.469,51.946,50.27,51.947,49.072z"/>
	<path fill-rule="evenodd" clip-rule="evenodd" fill="#FFFFFF" d="M240.591,44.724c0.611,2.13,1.222,4.26,1.874,6.531
		c-1.368,0-2.615,0-4.027,0c0.63-2.224,1.235-4.364,1.841-6.504C240.383,44.742,240.488,44.733,240.591,44.724z"/>
	<path fill-rule="evenodd" clip-rule="evenodd" fill="#FFFFFF" d="M94.138,67.764c0.788,0,1.398-0.01,2.008,0.003
		c0.947,0.019,1.395,0.611,1.454,1.461c0.062,0.884-0.252,1.569-1.249,1.808c-1.773,0.424-2.225,0.089-2.213-1.741
		C94.141,68.828,94.138,68.362,94.138,67.764z"/>
	<path fill-rule="evenodd" clip-rule="evenodd" fill="#FFFFFF" d="M273.775,69.124c0.38,1.335,0.76,2.671,1.187,4.171
		c-0.93,0-1.658,0-2.624,0c0.388-1.429,0.759-2.794,1.13-4.159C273.57,69.131,273.672,69.127,273.775,69.124z"/>
	<path fill-rule="evenodd" clip-rule="evenodd" fill="#FFFFFF" d="M58.619,73.302c0.426-1.49,0.806-2.819,1.186-4.148
		c0.097,0,0.194,0,0.291-0.001c0.375,1.331,0.75,2.662,1.169,4.149C60.335,73.302,59.607,73.302,58.619,73.302z"/>
	<path fill-rule="evenodd" clip-rule="evenodd" fill="#FFFFFF" d="M254.266,71.936c0-1.735,0-2.868,0-4.43
		c1.118,0.296,2.269,0.31,2.94,0.884c0.434,0.371,0.521,1.93,0.133,2.306C256.672,71.341,255.513,71.477,254.266,71.936z"/>
</svg>
